<svg width="30" height="31" viewBox="0 0 30 31" fill="none" xmlns="http://www.w3.org/2000/svg">
<path d="M24.5366 10.7222C23.5169 9.78614 23.4569 8.76095 22.6196 7.75923C21.992 7.02019 21.1471 6.31501 20.1654 5.75907C18.3001 4.6789 15.9614 4.24633 14.0212 4.3501C13.3404 4.37965 12.6562 4.46884 11.9812 4.61907C10.4291 4.96254 8.93051 5.63689 7.63867 6.58221C7.54368 6.65167 7.46322 6.66474 7.42051 6.69729C7.0146 6.9991 6.41123 7.59621 6.06876 7.96344C5.72826 8.31747 5.30136 8.82512 4.92266 9.37506C4.48282 10.006 4.11348 10.6911 3.88216 11.164C3.6958 11.5382 3.5399 11.9379 3.41013 12.0685C3.35496 12.2128 3.39758 12.3132 3.38865 12.3521C3.38844 12.3525 3.38823 12.3529 3.38802 12.3534C3.35794 12.4784 3.2158 12.7777 3.20027 12.8486C3.19796 12.8591 3.26491 12.8074 3.20352 12.972C3.1983 12.9868 3.16768 12.9647 3.13001 13.1074C3.11812 13.1444 3.0561 13.6342 3.03425 13.7726C2.93944 14.2294 2.76702 15.3416 2.76962 15.9082C2.7679 15.9945 2.786 16.0437 2.78594 16.1347C2.78592 16.1817 2.76608 16.253 2.76636 16.2675C2.76687 16.3314 2.8651 16.6029 2.68284 16.5144C2.70469 16.8054 2.76161 16.7146 2.7998 16.7183C2.81971 17.0312 2.75256 17.1928 2.84691 17.2641C2.86488 17.482 2.88871 17.6995 2.91847 17.9167C3.0988 19.2364 3.49842 20.5342 4.10156 21.7407C4.11277 21.7351 4.12399 21.7295 4.13521 21.7238C4.30289 22.1598 4.45655 22.2527 4.53076 22.5182C4.62792 22.6498 4.72734 22.7794 4.82898 22.907C5.51003 23.9771 6.36931 24.9408 7.36006 25.7511C9.64003 27.6258 12.6193 28.6466 15.6035 28.5986C15.784 28.5952 15.83 28.611 16.1284 28.5958C16.1314 28.5956 16.1344 28.5954 16.1375 28.5952C16.4663 28.5773 16.922 28.5185 17.3484 28.4536C17.7261 28.399 18.2831 28.2999 18.6971 28.1907C18.7906 28.1666 18.8555 28.14 18.866 28.1372C18.9277 28.1204 18.9346 28.1317 18.9944 28.1149C19.0659 28.0947 19.1489 28.0602 19.231 28.0354C19.5383 27.9437 19.866 27.8205 19.904 27.8062C20.088 27.739 20.1325 27.7326 20.1476 27.7271C20.3509 27.6477 20.2706 27.6681 20.3212 27.6483C20.5828 27.5437 20.7776 27.4863 21.1147 27.2962C21.1095 27.3088 21.1042 27.3214 21.0989 27.334C21.3671 27.2065 21.1803 27.2727 21.2325 27.2419C21.2554 27.2329 21.8194 26.934 21.8606 26.9062C22.01 26.8217 22.0195 26.8279 22.0324 26.8206C22.0644 26.8034 22.4264 26.5678 22.6152 26.4503C22.8393 26.3122 22.5954 26.5025 22.6518 26.4693C22.6617 26.4643 22.8874 26.306 22.921 26.289C22.9588 26.2712 22.7634 26.4085 22.7679 26.4084C22.772 26.4099 23.1034 26.1905 23.0473 26.2421C23.0053 26.2882 22.5551 26.5857 22.4606 26.6491C22.4453 26.66 22.4822 26.651 22.4685 26.6605C22.4206 26.711 21.3475 27.3345 21.2894 27.3456C21.3438 27.3106 21.3979 27.2752 21.4518 27.2395C21.3758 27.2791 21.2994 27.318 21.2226 27.3561C21.3289 27.2966 21.4343 27.2358 21.539 27.1737C21.3561 27.2177 20.8933 27.5021 20.8837 27.5347C20.8805 27.5508 21.196 27.4333 20.924 27.5853C20.9682 27.5677 21.0123 27.5499 21.0563 27.5318C21.1416 27.484 21.2264 27.4355 21.3107 27.3861C21.2514 27.4132 21.192 27.4398 21.1323 27.4659C21.152 27.452 21.1717 27.438 21.1913 27.424C21.3513 27.3368 21.5095 27.2465 21.6659 27.1531C21.7489 27.1097 21.7372 27.128 21.7942 27.0979C22.4993 26.7086 22.0333 26.9531 22.4807 26.6751C22.5465 26.6382 22.6121 26.6006 22.6773 26.5623C22.643 26.5599 22.8449 26.4407 23.0672 26.2661C23.044 26.2913 23.0207 26.3165 22.9973 26.3416C23.3318 26.1052 23.9872 25.5891 23.793 25.7086C23.8666 25.6499 23.9395 25.5903 24.0118 25.5299C24.0676 25.4733 24.1231 25.4161 24.1779 25.3587C24.2591 25.285 24.3397 25.2101 24.4191 25.1343C24.4214 25.1359 24.4237 25.1375 24.426 25.1391C24.3631 25.1999 24.2993 25.2603 24.2352 25.3199C24.2893 25.2813 24.3431 25.2421 24.3965 25.2024C24.4422 25.1566 24.4876 25.1104 24.5327 25.0638C24.333 25.2484 24.5803 24.9893 24.6327 24.9199C24.7014 24.8482 24.7608 24.7891 24.8104 24.7405C24.8751 24.6773 24.923 24.6321 24.9527 24.6005C24.9785 24.5752 25.2439 24.2428 25.1522 24.3836C25.2947 24.2177 25.4335 24.0482 25.5681 23.8756C25.623 23.81 25.6773 23.7435 25.7309 23.6767C25.6264 23.8308 25.9634 23.409 25.7262 23.728C25.5471 23.9649 25.4912 24.0142 25.4017 24.1227C25.3204 24.22 25.2823 24.2759 25.1919 24.3801C25.0735 24.5161 24.9568 24.6446 24.8403 24.7679C24.3564 25.2784 23.8888 25.7012 23.3277 26.134C23.19 26.2398 23.0657 26.3375 22.9708 26.4053C22.8634 26.4815 22.9904 26.3758 22.8555 26.4754C22.7135 26.5792 22.6874 26.6083 22.6491 26.6348C22.6253 26.6512 22.544 26.695 22.4734 26.7411C22.185 26.9335 21.7503 27.1958 21.7067 27.2187C21.6622 27.2542 20.7857 27.6907 20.7387 27.7004C20.7156 27.7097 20.7459 27.6532 20.5673 27.7795C20.5062 27.8074 20.4449 27.8349 20.3833 27.8619C20.39 27.8502 20.3967 27.8386 20.4034 27.8269C20.0488 28.008 20.1686 27.9416 19.8113 28.08C18.9561 28.4163 17.6334 28.7309 16.6381 28.8288C16.4448 28.8498 16.3568 28.8672 16.1631 28.8846C16.1343 28.8872 16.1032 28.8896 16.0691 28.8919C15.8239 28.9137 15.183 28.8833 15.3235 28.9347C14.7777 28.8879 14.6889 28.9601 14.4178 28.8942C14.3845 28.8998 14.3512 28.9053 14.3178 28.9108C14.024 28.8562 13.9314 28.877 13.6094 28.8435C13.4708 28.8277 13.6344 28.8132 13.3508 28.8153C13.2979 28.8048 13.2451 28.7938 13.1925 28.7826C13.206 28.7756 13.2196 28.7687 13.2331 28.7617C12.9242 28.7205 12.9055 28.7093 12.9351 28.7496C12.7876 28.7175 12.6406 28.6828 12.4945 28.6455C12.474 28.6527 12.4535 28.6599 12.433 28.6671C12.4808 28.7596 15.2538 29.0736 16.1652 28.9092C16.2677 28.9005 16.3463 28.8925 16.3945 28.8873C16.9583 28.87 18.0679 28.6418 18.5063 28.5216C18.6828 28.4773 18.7659 28.475 19.021 28.401C19.276 28.327 19.5864 28.2027 19.7186 28.1534C20.1772 28.0318 22.1747 27.0253 20.8217 27.719C20.8648 27.7075 20.9078 27.6957 20.9507 27.6836C21.4802 27.3899 21.2926 27.5046 21.7337 27.2638C21.9197 27.1625 22.3382 26.8831 22.3312 26.9235C22.0033 27.1415 21.635 27.3409 21.3324 27.4995C21.303 27.5161 20.9497 27.7145 20.7579 27.7968C20.585 27.8712 20.6899 27.7887 20.3308 27.9867C20.0358 28.0684 19.8852 28.1616 19.8115 28.194C19.684 28.2486 19.6627 28.235 19.5314 28.2786C19.3883 28.3257 19.2941 28.3705 19.2745 28.3771C19.0814 28.4533 18.0406 28.7283 17.9882 28.7201C18.0295 28.707 18.0708 28.6938 18.112 28.6804C17.8384 28.7349 17.9001 28.7434 17.8288 28.7615C17.7753 28.7724 17.7215 28.7831 17.6679 28.7933C17.6882 28.7845 17.7085 28.7756 17.7288 28.7667C17.4053 28.8286 17.6569 28.8028 17.1951 28.8788C16.9014 28.9253 16.594 28.9391 16.5656 28.9433C16.5572 28.9446 16.6517 28.9477 16.5315 28.9624C16.4301 28.9746 16.2908 28.9882 16.1728 28.9951C16.0594 29.0018 15.9664 29.0027 15.9468 28.9948C15.8492 29.003 15.8587 29.0205 15.8457 29.0216C15.7891 29.035 14.809 29.0556 14.6336 29.0401C14.1472 29.0253 13.6077 28.9712 13.0871 28.8929C13.0336 28.8848 13.0696 28.8771 13.0161 28.8689C12.9299 28.8575 12.4869 28.7964 12.4213 28.7824C12.2568 28.7542 11.8324 28.6426 11.7646 28.6297C11.7548 28.6281 11.8902 28.6829 11.7252 28.646C11.5422 28.604 11.6464 28.605 11.6365 28.6022C11.2712 28.4928 11.0371 28.4355 10.7894 28.3548C10.709 28.3286 10.5691 28.2573 10.4558 28.2209C10.4427 28.2167 10.4617 28.2439 10.4488 28.2401C10.2766 28.1863 10.1331 28.0903 10.0624 28.0584C9.88898 27.98 9.9746 28.0441 9.96537 28.0405C9.84798 27.9921 9.69518 27.9154 9.51992 27.8352C8.74033 27.4744 8.12771 27.1247 7.38458 26.5952C7.29143 26.5284 7.19449 26.4303 7.18068 26.4198C7.13744 26.3874 7.13492 26.417 7.01085 26.3211C6.99261 26.307 6.97449 26.2928 6.95647 26.2787C6.71699 26.0909 6.49674 25.9083 6.27029 25.7055C6.22136 25.6616 6.21626 25.625 6.17967 25.5909C6.05514 25.4795 5.60187 25.1216 5.65328 25.0573C5.37101 24.8675 5.26586 24.6606 5.09097 24.4587C4.6705 23.9838 4.0754 23.1849 3.76564 22.6333C3.69926 22.5179 3.68759 22.4524 3.65201 22.3877C3.58317 22.2745 3.22422 21.6082 3.21487 21.5686C3.18821 21.4946 3.29665 21.4951 3.05339 21.169C2.95413 20.9571 3.00518 20.9651 2.98845 20.9198C2.8599 20.5673 2.64969 20.2553 2.75524 20.289C2.58711 19.886 2.46036 19.6259 2.49315 19.4306C2.45436 19.4447 2.37338 19.2532 2.32996 19.008C2.46148 19.2362 2.48674 19.1954 2.64986 19.7833C2.65252 19.7925 2.61891 19.7842 2.62158 19.7934C2.64549 19.8776 2.71544 20.046 2.76288 20.187C2.8105 20.328 2.76451 20.2569 2.7848 20.313C2.80367 20.3643 2.82904 20.3527 2.85659 20.4266C2.94605 20.6664 3.03895 20.873 3.09628 21.0068C3.13225 21.0911 3.15176 21.195 3.18109 21.2601C3.29178 21.5128 3.56852 22.0276 3.74171 22.3326C3.77741 22.3964 3.73938 22.3831 3.81839 22.5227C3.82776 22.5389 3.88481 22.5841 3.96223 22.7008C4.0398 22.8174 4.08706 22.9162 4.13821 22.9904C4.18113 23.0522 4.18294 23.0132 4.2692 23.1407C4.32382 23.2586 5.19818 24.4244 5.2637 24.4743C5.33474 24.5636 5.34831 24.6247 5.39784 24.674C5.40669 24.6826 5.44234 24.6777 5.47249 24.7076C5.81306 25.0513 6.44052 25.685 7.04402 26.1643C7.31052 26.3793 7.56747 26.5676 7.77176 26.7063C9.16204 27.6443 10.6152 28.2637 12.2701 28.6404C12.3004 28.6433 12.3307 28.6462 12.361 28.6489C12.1936 28.6119 12.0268 28.5715 11.861 28.528C11.8625 28.5174 11.864 28.5069 11.8655 28.4963C11.6426 28.4349 11.666 28.4662 11.6684 28.483C11.5874 28.4538 11.5067 28.4237 11.4265 28.3929C11.3446 28.4103 10.8066 28.2116 10.533 28.1037C10.3539 28.0362 10.1376 27.9636 10.0451 27.9228C9.84974 27.8366 9.8653 27.8148 9.85002 27.8079C9.82423 27.7962 9.54436 27.6936 9.35258 27.5967C9.06963 27.4527 9.05668 27.4039 8.66304 27.2207C8.19084 26.9269 7.67228 26.5967 7.19665 26.2348C7.2491 26.252 7.18222 26.1991 7.07752 26.1205C6.95482 26.0288 6.78193 25.9003 6.68334 25.8153C5.55481 24.8674 4.41524 23.4358 3.73986 22.1196C3.65125 21.9514 3.61096 21.8106 3.56309 21.7167C3.53723 21.6657 3.49669 21.6584 3.4658 21.5847C3.46061 21.5717 3.48337 21.5493 3.4249 21.4134C3.2724 21.0795 2.89261 20.2434 2.88646 20.0003C2.66725 19.3515 2.50008 18.6859 2.38669 18.0115C2.29268 17.4525 2.23568 16.8881 2.21607 16.3224C2.2299 16.2905 2.24389 16.2586 2.25803 16.2268C2.17063 15.9927 2.24096 15.0531 2.29719 14.6016C2.37137 13.8025 2.56858 12.7943 2.78399 12.125C2.82955 11.9793 2.89195 11.8679 2.93948 11.732C2.95991 11.6735 2.957 11.5908 2.97938 11.5301C3.22444 10.845 3.68337 9.97298 4.06682 9.35514C4.14374 9.22874 4.22228 9.10476 4.30286 8.98234C5.1243 7.73973 6.11618 6.69049 7.32975 5.78581C8.64825 4.80599 10.151 4.08982 11.728 3.68531C14.7298 2.90426 17.9954 3.2988 20.6824 4.75759C21.3966 5.1425 22.0704 5.59834 22.6901 6.11585C22.7461 6.16271 22.7086 6.20336 22.7513 6.2399C23.0064 6.45192 23.5778 6.92807 23.8291 7.20875C24.0351 7.42792 24.2732 7.84685 24.4035 7.87097C23.8364 6.95701 22.9929 6.16915 22.0994 5.48955C22.0357 5.44115 22.0565 5.39286 22.0489 5.38637C21.9085 5.26741 21.9647 5.39085 21.7437 5.24641C21.6761 5.19355 21.0536 4.62932 21.0571 4.82289C21.0202 4.78203 20.9099 4.70184 20.7597 4.60778C20.348 4.34145 19.6147 4.01118 19.4243 3.95868C19.3462 3.93509 19.3838 3.99949 19.3679 3.99584C19.2993 3.98024 19.2916 3.909 19.2333 3.88551C19.0782 3.82142 18.6597 3.73535 18.5829 3.71261C18.4078 3.65375 17.883 3.45635 17.6394 3.41655C17.4173 3.37806 17.4459 3.45066 17.2551 3.41788C17.1043 3.39366 17.2783 3.3692 16.9436 3.29332C16.7776 3.2531 16.1842 3.21348 16.0407 3.2031C15.8975 3.18913 15.7399 3.13805 15.5404 3.12955C15.2534 3.11343 14.6282 3.12799 14.3375 3.15465C14.32 3.15598 14.2803 3.20533 14.2376 3.20626C14.149 3.20841 14.1717 3.1484 14.1041 3.14611C14.0356 3.13115 12.8754 3.2607 12.6818 3.30829C12.5468 3.33119 12.461 3.3823 12.387 3.3964C12.3289 3.4075 12.3127 3.36234 12.2531 3.37406C12.2347 3.37786 12.0878 3.45033 11.9329 3.48578C11.885 3.49666 11.7924 3.51419 11.6873 3.53514C11.4709 3.5774 11.203 3.63814 11.1602 3.65119C11.1188 3.66363 11.1741 3.68098 11.052 3.7179C10.9409 3.7517 10.8546 3.73526 10.7913 3.75581C10.6444 3.80356 10.4947 3.8951 10.3423 3.9529C9.90476 4.1221 9.90852 4.07178 9.88127 4.07981C9.80708 4.10613 9.79771 4.16201 9.77459 4.17305C9.67646 4.21915 9.43878 4.33732 9.35278 4.38126C9.24549 4.4353 9.17948 4.4181 9.0649 4.47598C8.97957 4.51938 8.82891 4.64582 8.64042 4.75355C8.21416 4.99555 7.72758 5.31762 7.3386 5.60181C7.22257 5.68639 7.18146 5.66947 7.14563 5.69518C6.9578 5.83127 6.88488 5.94672 6.83327 5.98753C6.46191 6.27458 5.8007 6.80371 5.5004 7.12729C5.3727 7.25367 4.88008 7.86394 4.61663 8.21888C4.58595 8.25912 4.59128 8.20448 4.56128 8.25238C4.48991 8.3673 4.54454 8.39049 4.50326 8.44461C4.48328 8.47065 4.41299 8.51324 4.35554 8.59046C4.27772 8.69501 4.21 8.79346 4.15004 8.88551C3.9808 9.1457 3.87462 9.35094 3.78941 9.49567C2.67433 11.3758 2.07423 13.6046 2.03672 15.6621C2.03173 15.8918 2.05946 16.1751 2.0478 16.5226C2.03365 16.5341 2.01953 16.5457 2.00544 16.5573C2.0204 16.5685 2.03537 16.5798 2.05034 16.591C2.08044 16.9828 2.11093 17.1281 2.14015 17.5287C2.14271 17.563 2.09217 17.6776 2.18107 17.7302C2.18039 18.0063 2.19499 17.9871 2.21865 18.0415C2.22977 18.0664 2.24325 18.1067 2.26094 18.1974C2.31749 18.4864 2.35992 18.7707 2.42492 19.0498C2.43407 19.2107 2.21894 18.5823 2.21418 18.5384C2.20035 18.4702 2.22491 18.3911 2.21467 18.3251C2.19919 18.2257 2.17573 18.1294 2.16026 18.0519C2.14532 17.9772 2.1378 17.9203 2.15175 17.8959C2.07665 17.6492 2.1423 17.9609 2.10445 17.935C2.09167 17.7636 2.08244 17.592 2.07684 17.4208C1.94121 17.3483 2.02693 16.3917 1.94638 16.4634C1.96135 16.3872 1.97709 16.3114 1.99358 16.2359C1.87195 15.9106 1.95079 15.712 2.00565 15.2768C1.98906 15.3078 1.97261 15.3389 1.9563 15.3701C1.94909 15.361 1.94694 14.9725 2.00324 15.1141C1.94539 14.7126 2.08679 14.7408 2.02278 14.3776C2.03581 14.166 2.07681 14.2985 2.13088 13.9251C2.16424 13.7042 2.18209 13.4252 2.23243 13.1797C2.2441 13.1231 2.28471 13.106 2.29592 13.0561C2.30719 13.0062 2.2782 12.9743 2.29153 12.9136C2.31885 12.788 2.38435 12.6327 2.40282 12.5549C2.41942 12.4851 2.41534 12.3779 2.4594 12.21C2.61941 11.6254 2.61382 11.8155 2.65705 11.7293C2.70591 11.6378 2.67186 11.5485 2.74938 11.3586C2.75724 11.3396 2.77446 11.4021 2.79636 11.3393C2.81434 11.2887 2.78423 11.2489 2.84244 11.0801C2.8553 11.0086 3.30038 9.99891 3.3888 9.85501C3.50409 9.62416 3.82191 9.14551 3.96659 8.92339C3.98928 8.88763 4.0077 8.84776 4.02584 8.80681C4.05153 8.74881 4.07664 8.68867 4.11227 8.63564C4.31202 8.33464 4.65696 7.87042 4.95375 7.52225C5.21618 7.20212 5.77415 6.73977 5.88612 6.53428C6.29694 6.12789 6.45285 6.09249 6.48472 6.06354C6.57526 5.98938 6.58862 5.92175 6.70187 5.8262C7.98303 4.71769 9.9523 3.72968 11.63 3.32386C11.8556 3.2657 12.0746 3.2154 12.285 3.17189C15.1739 2.56616 18.2737 2.99238 20.8784 4.37777C21.9737 4.95644 22.9813 5.69701 23.8556 6.56721C23.8817 6.55628 23.9078 6.54539 23.9339 6.53455C23.5941 6.17372 23.1814 5.75504 22.7957 5.4476C22.2834 5.02764 21.4077 4.60161 21.0563 4.23049C21.2382 4.30935 21.4835 4.52673 21.5219 4.4484C21.3499 4.34366 21.1752 4.24282 20.9981 4.14596C20.8646 4.07297 20.7302 4.00251 20.5941 3.93422C20.5867 3.97476 20.5791 4.01528 20.5714 4.0558C20.2373 3.90628 19.8972 3.74915 19.5521 3.62269C19.4921 3.60074 19.5219 3.65013 19.47 3.63061C19.412 3.60885 19.4637 3.58977 19.4529 3.58541C19.3057 3.53011 19.2489 3.5493 19.2311 3.54225C19.1853 3.52458 19.2328 3.50408 19.1016 3.44863C18.8575 3.34622 18.6503 3.38039 18.7532 3.25251C18.6714 3.22737 18.5893 3.20304 18.5071 3.17952C18.4747 3.21316 18.4425 3.24688 18.4106 3.28065C17.9459 2.98031 17.6469 3.21493 17.4083 2.93384C17.3078 2.94969 17.2079 2.96657 17.1085 2.98444C17.0623 2.93545 17.0155 2.88681 16.9681 2.83853C16.9525 2.87102 16.9369 2.90351 16.9215 2.93602C16.4176 2.83 15.8677 2.81906 15.3781 2.79726C15.0364 2.78347 14.9542 2.77046 14.6509 2.77696C13.9761 2.80449 14.6454 2.71133 14.0768 2.66969C14.109 2.70811 14.1411 2.7467 14.1728 2.78547C14.081 2.80543 13.9894 2.82631 13.8983 2.84807C13.8312 2.82025 13.7637 2.79305 13.6956 2.76649C13.4274 2.96184 13.229 2.85117 13.189 2.85645C13.1572 2.86181 13.0656 2.97223 12.7163 2.94384C12.879 3.05536 12.4616 2.98874 12.4294 2.99592C12.3989 3.00004 12.0238 3.10874 11.8703 3.1459C11.8071 3.16046 11.7048 3.17714 11.5959 3.198C11.4963 3.21702 11.3914 3.2395 11.3064 3.26461C11.1492 3.31147 11.1788 3.3508 11.1675 3.35451C10.9763 3.41651 11.0862 3.34596 10.9466 3.38799C10.8071 3.43066 10.713 3.50355 10.6822 3.51045C10.6666 3.51388 10.7027 3.45707 10.6328 3.47691C10.4446 3.52948 10.128 3.68779 9.92257 3.77268C9.84964 3.80242 9.74388 3.80934 9.6627 3.84385C9.53836 3.89693 9.50043 3.96533 9.42888 3.99681C9.4042 4.00757 9.21486 4.01661 9.02572 4.12433C8.98918 4.14547 8.95237 4.33041 8.70976 4.2211C8.71295 4.25305 8.71622 4.28496 8.71956 4.31683C8.12154 4.72708 7.8273 4.64901 7.67264 4.9998C7.22454 5.2773 7.47605 5.00777 7.42123 5.02982C7.38557 5.04472 7.25751 5.16306 7.24157 5.17334C7.21285 5.19106 7.20218 5.16683 7.1724 5.18873C6.63295 5.59889 6.90517 5.45837 6.75556 5.61318C6.40973 5.98789 6.00261 6.12549 6.71393 5.59488C6.70492 5.58383 6.69591 5.57277 6.6869 5.56172C6.52304 5.70648 6.10227 6.06811 6.19397 5.89257C6.25634 5.74157 7.32744 4.95147 6.68429 5.35243C6.53879 5.4459 6.50391 5.54054 6.21305 5.65917C6.06067 5.78539 6.12514 5.89848 5.8952 6.04061C5.95765 6.0434 6.02005 6.04669 6.08231 6.05054C5.85586 6.33247 5.48888 6.58983 5.31881 6.80953C5.25937 6.88398 5.1913 7.27018 5.0878 7.07546C4.98896 7.19749 4.49021 7.74829 4.42587 7.87305C4.4105 7.90335 4.46586 7.99709 4.16117 8.36537C4.13121 8.38507 4.10131 8.40494 4.07147 8.425C4.28736 8.04102 3.81758 8.66019 3.85174 8.43054C3.92857 8.39426 4.15069 8.12203 4.20324 8.0905C4.29174 8.03614 4.16585 8.29554 4.36815 7.99501C4.36555 7.70831 4.04283 8.2868 3.97023 8.1142C3.81575 8.43333 3.73422 8.52406 3.67444 8.58416C3.65188 8.60713 3.63309 8.62564 3.61628 8.65092C3.3585 9.04337 3.22846 9.30924 3.01027 9.6949C2.98641 9.80259 3.40303 9.11976 3.4464 9.03125C3.36705 9.38964 3.65799 8.8999 3.75684 8.63637C3.76008 8.62742 3.76309 8.61871 3.76582 8.61028C3.80739 8.61052 3.84894 8.61097 3.89049 8.61162C3.87218 8.63654 3.85405 8.66153 3.83612 8.6866C3.65666 8.9375 3.49714 9.19591 3.37253 9.47672C3.35067 9.48981 3.32882 9.50305 3.30701 9.51635C3.32602 9.44046 3.34553 9.36481 3.3658 9.28895C3.20165 9.52111 3.36932 9.41826 3.11732 9.71083C3.14631 9.73869 3.17534 9.76646 3.2044 9.79412C3.02961 10.1067 2.86743 10.4272 2.71865 10.7543C2.71213 10.9534 2.45152 11.589 2.40447 11.4405C2.30751 11.7031 2.4669 11.3927 2.40541 11.6477C2.37865 11.7585 2.31529 11.971 2.27543 12.0166C2.19463 11.9684 2.28339 11.6452 2.25736 11.5291C2.19677 11.5765 1.86065 13.1057 1.80668 12.9519C1.76889 13.0724 1.83162 13.0267 1.80156 13.2507C1.71072 13.8741 1.5128 14.8453 1.62922 15.3591C1.72331 14.768 1.66906 14.5895 1.7187 14.1348C1.72058 13.8395 2.09819 12.1008 2.10664 12.5127C2.11113 12.447 2.11608 12.3811 2.12149 12.3152C2.16599 12.259 2.21096 12.2035 2.25641 12.1484C2.20914 12.3264 2.16555 12.5053 2.12567 12.6849C2.08804 12.7211 2.05063 12.7576 2.01347 12.7944C2.02823 12.8187 2.04304 12.8429 2.05788 12.8671C2.0444 12.9436 2.03156 13.0202 2.01939 13.0968C2.00063 13.0708 1.98191 13.0445 1.96323 13.0182C1.93404 13.1349 1.90646 13.252 1.88048 13.3695C1.91742 13.3434 1.9545 13.3174 1.99171 13.2918C1.89703 13.8463 1.91344 13.6551 1.80842 13.9567C1.77141 14.1877 1.88075 13.8045 1.83396 14.2956C1.79318 14.8674 1.72679 14.484 1.70234 15.23C1.71692 15.2413 1.73149 15.2526 1.74607 15.2638C1.72399 15.4265 1.70507 15.5901 1.68937 15.754C1.70797 15.7323 1.72666 15.7108 1.74543 15.6893C1.73251 16.0271 1.7862 16.489 1.72316 16.6053C1.73922 16.2615 1.61753 16.2693 1.59752 16.3602C1.57511 16.4603 1.61556 17.2987 1.77257 18.1211C1.90086 18.8335 2.11089 19.5266 2.18672 19.761C2.393 20.4079 2.55093 20.9029 2.8598 21.4443C2.70164 21.0538 2.16939 19.6769 2.14484 19.392C2.14052 19.3642 2.24439 19.3441 2.08345 19.2038C2.00864 18.8718 1.9185 18.5035 1.84216 18.1087C1.78979 17.838 1.74399 17.5555 1.7136 17.2655C1.74802 17.2836 1.78242 17.3016 1.81681 17.3194C1.80045 17.6993 1.95889 18.0296 1.92261 18.0943C1.91651 18.1054 1.90487 18.109 1.88597 18.1039C1.90095 18.19 1.91677 18.2759 1.93341 18.3616C1.95398 18.3575 1.97455 18.3534 1.99513 18.3493C2.0199 18.4779 2.04659 18.6062 2.07516 18.7341C2.05493 18.7387 2.03469 18.7434 2.01445 18.748C2.03844 18.8545 2.06366 18.9604 2.09024 19.0662C2.11289 19.0722 2.13553 19.0781 2.15816 19.0839C2.18504 19.4152 2.64118 20.4331 2.37468 20.0082C2.42285 20.1537 2.47356 20.2985 2.52673 20.4423C2.54012 20.4367 2.55351 20.4311 2.56691 20.4256C2.59142 20.4865 2.61642 20.5473 2.64182 20.6079C2.6219 20.5925 2.60199 20.577 2.58208 20.5614C2.7105 20.8345 2.76098 21.1249 2.88322 21.2876C2.83837 21.1644 2.79545 21.0405 2.75456 20.9162C2.8313 21.1559 3.06058 21.5583 3.07956 21.5944C3.13434 21.7074 3.13858 21.7794 3.19946 21.9016C3.25484 22.0116 3.26629 21.9863 3.27618 22.007C3.57176 22.6006 3.35638 22.4364 3.62759 22.6356C3.62872 22.6734 3.63008 22.7113 3.63166 22.7492C3.66761 22.7788 3.70362 22.8082 3.73968 22.8375C3.84181 23.0049 3.94771 23.1701 4.05723 23.3328C4.03878 23.266 4.02103 23.1992 4.00396 23.1322C4.17346 23.3704 4.21781 23.5066 4.23322 23.5307C4.27781 23.5977 4.32205 23.6109 4.33663 23.6309C5.05813 24.5825 4.5957 24.0212 4.90044 24.5506C5.07123 24.6863 4.95832 24.4963 4.96991 24.4467C5.14043 24.6738 5.20788 24.7326 5.41066 24.9523C5.4636 25.0093 5.50662 25.0845 5.54084 25.1199C5.57041 25.1506 5.67982 25.2294 5.75283 25.3008C5.87414 25.4201 6.02959 25.5859 6.20418 25.7412C6.3183 25.8438 6.6302 26.1011 6.92338 26.322C7.00063 26.3806 7.07619 26.437 7.14556 26.4885C7.28772 26.5935 7.24482 26.5831 7.28173 26.61C7.2972 26.6213 7.42107 26.6844 7.51447 26.7488C8.27439 27.275 9.10541 27.7436 9.96623 28.1004C10.5724 28.3523 11.2113 28.549 11.8485 28.7104C11.9842 28.7444 11.9094 28.7389 11.9687 28.7538C11.9892 28.7585 12.0183 28.7443 12.2276 28.8001C12.3033 28.8199 12.2122 28.8157 12.2873 28.8327C12.3239 28.8406 12.3432 28.8266 12.5584 28.8646C12.9499 28.932 13.1585 28.9834 13.1937 28.9883C13.2603 28.9963 13.2429 28.9787 13.3308 28.99C13.7611 29.0444 14.1224 29.072 14.5091 29.0886C14.6895 29.1119 15.9363 29.0868 16.0043 29.0706C16.1481 29.0654 16.0335 29.0988 16.1812 29.0894C16.1909 29.0887 16.2017 29.0879 16.2138 29.0868C16.2682 29.0752 16.3225 29.0633 16.3766 29.0511C16.3105 29.0535 16.2444 29.0554 16.1783 29.0567C16.1567 29.0571 16.1351 29.0575 16.1135 29.0578C16.1348 29.057 16.1564 29.0559 16.1781 29.0546C16.4018 29.0417 16.6405 29.005 16.8015 28.9847C16.8343 28.9813 17.1363 28.9517 17.2888 28.924C17.2248 28.9396 17.1605 28.9548 17.0962 28.9695C17.1198 28.9702 17.1436 28.9708 17.1673 28.9713C17.4725 28.9169 17.7946 28.8549 18.1046 28.7839C18.2163 28.758 18.1809 28.7764 18.2938 28.7491C18.9493 28.5786 18.7728 28.5914 19.4151 28.4558C19.2066 28.5279 18.4366 28.7603 18.3209 28.7807C18.2415 28.8002 17.9195 28.808 18.0472 28.8463C17.4102 28.9826 17.9569 28.8344 17.3617 28.9543C17.3752 28.9604 17.3886 28.9666 17.402 28.9726C17.194 29.0148 17.0392 29.0423 16.9094 29.0453C16.8839 29.078 16.5325 29.1245 16.1865 29.1495C16.0317 29.1611 15.8788 29.1693 15.7565 29.1767C15.1856 29.2125 14.5374 29.2151 13.9716 29.1711C13.7765 29.1563 13.6685 29.1252 13.6441 29.1228C13.6085 29.1193 13.5067 29.125 13.4356 29.1165C13.1686 29.0924 12.3747 28.9242 12.168 28.9232C13.4852 29.2092 14.8456 29.2957 16.1891 29.1786C16.4319 29.1575 16.6738 29.1298 16.915 29.0956C16.7174 29.1216 18.2988 28.8297 18.373 28.7865C18.4463 28.7685 18.3879 28.7965 18.4099 28.7916C18.5733 28.7548 18.7056 28.6982 18.7566 28.6835C18.7955 28.6723 18.8764 28.6579 19.0139 28.6151C19.0392 28.6073 19.0436 28.5968 19.0706 28.5883C19.2496 28.532 19.4253 28.4728 19.6025 28.4089C19.6133 28.4051 19.6622 28.4004 19.7069 28.3838C19.7516 28.3672 19.7914 28.3392 19.8027 28.3349C19.9437 28.2822 20.1861 28.1927 20.3178 28.1359C20.3635 28.1163 20.3284 28.1221 20.3796 28.1001C20.5365 28.0317 20.4919 28.0701 20.6828 27.978C20.7465 27.9467 20.7372 27.9378 20.8605 27.8807C20.9477 27.84 20.9479 27.8639 20.962 27.858C20.9818 27.8502 21.2707 27.6852 21.3726 27.6452C21.1801 27.7898 21.6026 27.5233 21.5733 27.5205C21.6902 27.4598 21.8062 27.3973 21.9213 27.3331C21.958 27.3069 21.9945 27.2805 22.031 27.254C22.4921 26.9894 22.7551 26.7974 23.1757 26.4871C23.1971 26.4735 23.5473 26.2057 23.5333 26.2209C23.3337 26.394 23.1239 26.5542 22.9784 26.6416C22.77 26.8277 22.7545 26.8149 22.3824 27.066C22.2571 27.1491 22.2522 27.1615 22.2377 27.1709C21.7501 27.4952 20.918 27.9338 20.5444 28.0633C20.447 28.1162 20.8093 27.9535 20.6714 28.0231C20.6104 28.0953 18.7068 28.7977 19.305 28.5443C19.2417 28.5666 19.1782 28.5884 19.1146 28.6097C19.0612 28.6633 18.7382 28.7525 18.765 28.7082C18.7366 28.7237 18.7081 28.7392 18.6796 28.7546C18.621 28.7773 18.5505 28.8003 18.4506 28.8288C18.1847 28.9165 16.9566 29.1747 16.1932 29.2247C15.8709 29.2528 15.6353 29.262 15.598 29.2656C15.5956 29.2754 15.5932 29.2851 15.5907 29.2948C15.7935 29.2877 15.9949 29.2747 16.196 29.2565C17.0331 29.1796 17.8604 29.0221 18.751 28.7839C18.717 28.7859 18.6829 28.7876 18.649 28.7892C19.0903 28.6761 19.5262 28.5397 19.9541 28.3807C19.5114 28.5744 18.7814 28.8257 18.2849 28.9352C18.1969 28.9552 18.2584 28.9284 18.238 28.9322C18.1846 28.9417 18.1327 28.9751 17.9433 29.0203C17.754 29.068 17.2706 29.1445 17.2262 29.1505C17.1412 29.1661 16.9143 29.2255 16.768 29.2447C16.576 29.2697 16.7028 29.2381 16.6643 29.2429C16.5046 29.2617 16.3624 29.2845 16.2368 29.2954C16.2252 29.2964 16.2128 29.2974 16.1997 29.2983C16.0027 29.3139 15.6539 29.3137 15.533 29.3555C15.6666 29.3514 15.8002 29.3454 15.9336 29.3373C15.2099 29.4029 14.6431 29.3485 13.9283 29.3403C13.7615 29.3812 14.3538 29.4144 13.8516 29.4023C13.9426 29.4084 14.0336 29.4137 14.1246 29.418C14.1466 29.4084 14.1686 29.3988 14.1905 29.3891C14.3465 29.4051 14.5027 29.4182 14.6593 29.4284C14.6149 29.4182 14.5704 29.4078 14.5261 29.397C15.0814 29.4074 15.6392 29.37 15.8356 29.4033C15.8463 29.391 15.857 29.3786 15.8676 29.3663C15.9724 29.3618 16.0876 29.3527 16.2034 29.3408C16.6562 29.2958 17.1132 29.2001 17.0069 29.2662C17.0305 29.2592 17.0541 29.2522 17.0777 29.2452C17.3868 29.206 17.2515 29.2029 17.3661 29.1799C17.3992 29.1764 17.9935 29.0646 17.7348 29.1369C18.3143 29.0211 18.1234 29.0051 18.2806 28.9652C18.6541 28.9018 19.2887 28.6554 19.0287 28.7803C19.0827 28.7648 19.1366 28.7488 19.1905 28.7325C19.3561 28.6452 19.5386 28.618 19.7301 28.5574C19.7938 28.5339 19.8573 28.51 19.9207 28.4856C19.9594 28.4596 19.9979 28.4334 20.0363 28.4072C20.6424 28.2027 20.4046 28.1649 20.7124 28.139C20.6739 28.1639 20.6352 28.1888 20.5965 28.2135C20.4997 28.2614 20.4024 28.3081 20.3044 28.3538C20.7052 28.1833 21.0976 27.9934 21.4798 27.7851C21.9748 27.5378 22.2292 27.3486 22.7437 27.0148C22.7894 26.9797 22.8348 26.9444 22.88 26.9088C22.8436 26.9587 22.6618 27.0885 23.0026 26.8503C23.0394 26.8405 22.8141 27.0091 22.7026 27.073C22.6759 27.0885 22.8847 26.9289 22.6428 27.0978C22.4765 27.2101 22.7901 27.0233 22.2851 27.3502C22.3057 27.3411 22.3263 27.332 22.3468 27.3227C22.2922 27.3585 22.2373 27.3938 22.1821 27.4287C22.1287 27.4527 22.0752 27.4763 22.0215 27.4994C21.9004 27.5872 21.8387 27.648 21.5398 27.8129C21.6178 27.7625 21.5004 27.8095 21.3523 27.8898C21.3552 27.8956 21.3582 27.9013 21.3612 27.907C21.002 28.1027 21.1186 28.0198 20.8205 28.1845C20.7877 28.1946 20.7548 28.2044 20.7218 28.2141C20.5662 28.318 19.9429 28.6005 20.0445 28.5184C19.8804 28.6241 19.4976 28.7528 19.3471 28.7735C19.3386 28.7842 19.3301 28.795 19.3215 28.8057C19.2467 28.8333 19.1717 28.8602 19.0963 28.8864C19.0527 28.896 19.0091 28.9053 18.9654 28.9143C18.9129 28.9357 18.8602 28.9568 18.8074 28.9776C18.7726 28.9802 18.7378 28.9826 18.7031 28.9848C18.6186 29.0193 18.5336 29.053 18.4482 29.0861C18.393 29.0948 18.3378 29.1031 18.2826 29.111C18.2816 29.1304 17.7463 29.2645 17.5927 29.2814C17.5487 29.2955 17.5045 29.3095 17.4603 29.3232C17.4369 29.3195 17.4134 29.3157 17.39 29.3118C17.3576 29.3247 17.3251 29.3374 17.2926 29.3501C17.214 29.3578 17.1354 29.3648 17.0568 29.371C16.7454 29.4627 16.7297 29.4256 16.6573 29.4362C16.5765 29.4476 16.3802 29.482 16.218 29.5059C16.11 29.522 16.0177 29.5341 15.9867 29.5363C15.9094 29.5415 15.8711 29.5289 15.8087 29.532C14.7797 29.564 15.2027 29.5762 14.996 29.592C14.8843 29.5974 14.8051 29.5823 14.7064 29.5834C14.5376 29.5924 13.6831 29.5692 13.6344 29.5569C13.5634 29.5477 13.7384 29.4874 13.5055 29.4857C13.4932 29.5277 13.0045 29.4304 13.2279 29.5141C13.0248 29.486 12.8224 29.4532 12.6208 29.4159C12.6352 29.469 12.3903 29.3989 12.1193 29.3482C11.7336 29.2853 10.8707 29.0896 10.9193 29.0411C10.8256 29.0271 10.7319 29.0122 10.6382 28.9965C10.0304 28.7883 9.43481 28.5765 8.85499 28.3055C8.04431 27.9265 7.23881 27.4477 6.49028 26.8881C5.64997 26.2616 4.8835 25.5339 4.23391 24.7689C4.17489 24.6992 4.20179 24.694 4.1598 24.6436C3.93455 24.3831 3.3767 23.6785 3.12243 23.2654C3.03916 23.1345 3.02034 23.0577 2.99525 23.0155C2.91086 22.8719 2.90388 22.9217 2.86464 22.8555C2.79974 22.7526 2.51056 22.1798 2.41691 21.9801C2.36859 21.8822 2.2868 21.7779 2.23878 21.6588C2.23463 21.6485 2.2685 21.6553 2.2649 21.6467C2.16813 21.4347 2.2064 21.5712 2.17401 21.4993C1.94477 20.9851 1.72355 20.4242 1.54391 19.8396C1.49887 19.6946 1.45273 19.4662 1.42023 19.3404C1.40775 19.2923 1.40944 19.3841 1.36619 19.2177C1.35159 19.1606 1.37476 19.1342 1.36009 19.0696C1.2982 18.7912 1.18411 18.7168 1.20756 18.4609C1.19218 18.3913 1.17527 18.3138 1.15778 18.2307C1.056 17.7625 0.954554 17.1156 0.925803 16.7471C0.917186 16.6446 0.931751 16.5936 0.924882 16.4959C0.920047 16.4266 0.884347 16.3059 0.879148 16.1971C0.873877 16.0885 0.89478 15.9168 0.891752 15.7082C0.887917 15.4887 0.877466 15.2147 0.879298 15.165C0.881014 15.1051 0.917218 15.0789 0.919088 15.0192C0.923086 14.8388 0.920541 14.3523 0.942736 14.1191C0.964515 13.8687 1.00271 13.7217 1.01388 13.6367C1.02418 13.558 1.00737 13.4613 1.01261 13.4253C1.02071 13.3692 1.05835 13.3621 1.06953 13.2913C1.08791 13.1757 1.0858 13.0523 1.11839 12.8792C1.43699 11.1903 2.07181 9.57607 2.9675 8.13622C3.72385 6.91869 4.66542 5.82534 5.74465 4.89991C6.00845 4.67642 6.13787 4.5241 6.55304 4.22572C6.7224 4.10635 6.67919 4.1959 6.80411 4.09414C6.86002 4.04904 6.82443 4.0297 6.89757 3.97558C7.22065 3.73539 7.63575 3.5152 7.78471 3.42607C7.84371 3.3904 7.89035 3.31313 8.01305 3.24151C8.92545 2.70442 10.0867 2.21204 11.1831 1.89078C11.2009 1.8855 11.2189 1.88016 11.2372 1.87476C11.8156 1.69953 12.6768 1.4935 13.3482 1.40793C15.2593 1.13877 17.3678 1.33132 19.0688 1.80861C19.9717 2.05519 20.8525 2.38463 21.6945 2.79692C23.2525 3.55891 24.6796 4.61078 25.8404 5.91125C25.0912 4.89174 23.7261 3.80005 22.508 3.10467C22.2602 2.95972 22.0072 2.82214 21.7487 2.69192C18.5772 1.06963 14.6354 0.747483 11.207 1.7636C10.9671 1.83298 10.7298 1.9081 10.495 1.98883C9.143 2.44079 7.54194 3.28539 6.30971 4.23286C6.25342 4.2754 6.15796 4.39054 6.03857 4.4843C6.01257 4.50292 5.67011 4.71768 5.56952 4.80884C5.72997 4.79919 5.27833 5.08466 5.16356 5.20277C5.01658 5.3484 4.74581 5.68481 4.4062 6.02564C4.0994 6.3373 4.15255 6.22409 4.13446 6.24021C4.02298 6.34902 4.03416 6.43003 3.96421 6.52561C3.81074 6.73217 3.30122 7.37928 2.8726 8.07609C2.48925 8.6871 2.16868 9.33013 2.03552 9.62577C1.96157 9.78861 1.92824 9.77892 1.91186 9.81584C1.86901 9.91406 1.84146 10.068 1.7779 10.2265C1.66242 10.5119 1.5138 10.8354 1.46067 10.9969C1.3281 11.3817 1.1574 12.134 1.05657 12.6491C1.02727 12.7939 0.995752 12.778 0.98315 12.8438C0.923559 13.1337 0.853194 13.8995 0.826489 14.2626C0.774067 14.8522 0.736812 15.4619 0.770385 16.0629C0.757502 16.1013 0.744811 16.1398 0.732313 16.1784C0.750111 16.2382 0.768225 16.2978 0.786646 16.3571C0.816541 16.9914 0.906824 17.6286 1.03635 18.2524C1.11412 18.6272 1.20597 18.9973 1.30708 19.3609C1.3349 19.4732 1.4818 20.0284 1.5157 20.1182C1.54152 20.1935 1.59764 20.2574 1.63324 20.3696C1.68411 20.5266 1.57183 20.4013 1.68449 20.6483C1.71526 20.7144 1.71364 20.64 1.77464 20.7726C1.7881 20.8197 2.1734 21.6693 2.20045 21.7117C2.2341 21.788 2.21913 21.8777 2.22787 21.8976C2.27309 22.0006 2.30788 21.9783 2.34562 22.0435C2.4567 22.2359 2.57423 22.5015 2.59304 22.5324C2.81097 22.9115 3.27939 23.5776 3.53996 23.9514C3.57545 24.0036 3.54786 24.0142 3.55373 24.0236C3.59195 24.0844 3.64504 24.1007 3.68698 24.1542C3.91073 24.4437 4.26388 24.8952 4.51237 25.167C4.54078 25.1985 4.61294 25.2537 4.66409 25.3093C4.95524 25.6219 4.84331 25.5375 4.85904 25.556C4.89814 25.5985 4.98855 25.652 5.10017 25.7567C5.38508 26.0301 5.9564 26.5259 6.29404 26.7796C6.37734 26.8437 6.43128 26.8879 6.46643 26.9193C6.53709 26.9822 6.53173 26.9935 6.54272 27.002C6.57829 27.0288 6.691 27.0837 6.86412 27.1996C7.19845 27.42 7.15027 27.4099 7.2893 27.4982C7.30109 27.5054 7.29185 27.476 7.44808 27.5702C7.74733 27.7564 8.43269 28.1528 8.77668 28.3083C8.90807 28.3698 8.94692 28.367 9.08226 28.4274C9.29559 28.5255 9.78071 28.7398 9.8207 28.7526C9.83168 28.7567 9.86393 28.7466 9.92845 28.7706C9.99942 28.7969 10.0657 28.8321 10.119 28.8508C10.4218 28.9607 10.9629 29.0836 10.794 29.1082C10.8984 29.1205 11.0026 29.1317 11.1067 29.1419C11.754 29.3218 12.397 29.4413 13.056 29.5203C13.2041 29.538 13.3266 29.5635 13.4521 29.5749C13.5778 29.5892 14.1334 29.6055 14.226 29.6061C14.3913 29.6207 15.3308 29.612 15.4469 29.5996C15.6746 29.5914 15.8968 29.5974 15.9889 29.5843C16.0627 29.5738 15.9933 29.5671 16.1342 29.5498C16.1613 29.5464 16.1904 29.543 16.221 29.5396C16.4662 29.5135 16.8015 29.4788 16.8672 29.4678C16.8987 29.4623 16.8387 29.4638 17.134 29.4134C17.2929 29.3855 17.3798 29.3792 17.4373 29.368C17.455 29.3638 17.4258 29.3548 17.7384 29.2902C17.9539 29.2444 18.0478 29.2334 18.0704 29.2282C18.1041 29.2199 18.1825 29.1868 18.3173 29.1517C18.6332 29.0726 19.2058 28.908 19.4959 28.8002C19.552 28.7796 19.5284 28.7736 19.7515 28.6899C19.9106 28.6291 19.8869 28.6506 19.9464 28.6273C20.0405 28.5899 20.1748 28.5197 20.379 28.4298C20.6556 28.3546 22.4737 27.3348 22.5439 27.2441C22.605 27.2051 22.674 27.1572 22.7063 27.1408C22.6839 27.1626 22.6615 27.1845 22.639 27.2062C22.3661 27.3721 22.483 27.3157 22.4135 27.3644C22.3135 27.4359 21.9201 27.6803 21.825 27.7402C21.7914 27.7619 21.8763 27.7258 21.6938 27.8398C21.4972 27.9613 21.3968 27.9909 21.3295 28.0608C21.0265 28.1876 20.7587 28.3577 21.1019 28.1943C21.3124 28.1351 23.0769 27.0288 23.3824 26.7289C23.6532 26.5169 24.1322 26.0872 24.4311 25.7902C24.6112 25.62 25.0257 25.1728 25.0144 25.1978C25.1615 25.0346 24.9992 25.2011 25.0287 25.1656C25.0443 25.147 25.0851 25.1011 25.1383 25.0406C25.2979 24.8616 25.5571 24.5467 25.6157 24.4693C26.0104 23.9663 26.4491 23.2901 26.7579 22.7548C26.7455 22.7809 26.7331 22.807 26.7206 22.8331C26.6588 22.9581 26.3148 23.5043 26.2806 23.5698C26.7983 22.7786 27.2324 21.9357 27.5746 21.0598C27.573 21.0771 27.9544 19.9766 27.9599 19.9209C27.9563 19.9412 27.9528 19.9616 27.9492 19.9819C27.7464 20.6075 27.7714 20.5545 27.6119 20.967C27.5469 21.1351 27.5709 21.0862 27.5391 21.1692C27.207 21.9897 27.5304 21.1805 27.2608 21.802C27.3533 21.6201 27.1254 22.1267 27.0099 22.3478C26.9888 22.4007 26.6265 23.0525 26.5765 23.126C26.327 23.5567 25.8436 24.2664 25.5241 24.6468C25.3858 24.8192 25.2818 24.947 25.1755 25.0747C25.0934 25.173 25.0103 25.2706 24.9063 25.3857C24.724 25.5854 24.7713 25.523 24.6834 25.6153C24.4977 25.8068 24.4496 25.885 24.3056 25.9807C24.1777 26.1093 24.0475 26.2355 23.9146 26.3594C23.9113 26.3555 23.908 26.3515 23.9046 26.3476C23.8196 26.4232 23.7335 26.4978 23.6466 26.5714C23.6243 26.5971 23.6019 26.6229 23.5795 26.6486C23.2957 26.8733 23.4038 26.7658 23.3421 26.7962C23.2805 26.844 23.2183 26.8913 23.1558 26.9381C23.1151 26.9847 23.0741 27.0312 23.0328 27.0777C22.753 27.2873 22.4649 27.4864 22.1694 27.6744C22.1472 27.6814 22.1249 27.6883 22.1027 27.6952C22.1052 27.7008 22.1077 27.7065 22.1102 27.7121C21.6097 28.0307 21.0879 28.3179 20.5488 28.5712C20.4119 28.6535 21.2717 28.2386 21.3313 28.1969C21.6924 28.0173 22.58 27.4281 22.5879 27.4385C22.7876 27.2875 23.3853 26.8377 23.5711 26.6974C23.2992 26.9232 23.0182 27.1389 22.7291 27.3436C22.7422 27.3427 22.7554 27.3418 22.7686 27.3408C22.3921 27.5727 22.3396 27.6083 21.9684 27.8751C21.9631 27.8667 21.9578 27.8583 21.9525 27.8499C21.7013 28.0501 21.1805 28.2658 21.1856 28.3118C21.0345 28.3881 20.882 28.4615 20.7281 28.5321C20.396 28.6859 20.9436 28.5164 19.6082 29.0489C19.5151 29.0831 19.5304 29.064 19.3909 29.1162C19.3503 29.1301 19.1263 29.2372 18.6743 29.3741C18.6037 29.3952 18.5954 29.3855 18.5216 29.4055C18.3519 29.4526 18.0166 29.5645 18.1624 29.486C17.4824 29.6446 17.769 29.6034 17.5597 29.6656C17.4196 29.7046 17.444 29.675 17.3219 29.7052C17.1702 29.7397 17.2879 29.7519 16.671 29.84C16.74 29.8278 16.8088 29.8151 16.8774 29.8019C16.8419 29.801 16.8064 29.8 16.7708 29.7987C16.4213 29.8688 16.4521 29.8375 16.2892 29.8981C16.277 29.8988 16.265 29.8995 16.2529 29.9002C16.0091 29.914 15.7914 29.9354 15.4543 29.9608C14.767 30.0004 15.118 30.0401 14.3325 29.9793C14.2046 29.986 14.0762 29.9912 13.9478 29.9948C13.7392 29.9663 13.9107 29.9529 13.5988 29.9288C13.839 29.9923 13.1808 29.9289 13.0635 29.9554C13.0531 29.9442 13.0428 29.933 13.0325 29.9217C12.9627 29.9143 12.8929 29.9064 12.8231 29.8979C12.8217 29.906 12.8202 29.9141 12.8188 29.9221C12.7266 29.9049 12.6348 29.8867 12.543 29.8675C12.4719 29.8658 12.4006 29.8636 12.3294 29.861C12.2179 29.826 12.1071 29.7895 11.997 29.7515C11.9257 29.7373 11.8546 29.7226 11.7836 29.7073C11.8033 29.7241 11.8231 29.7409 11.8429 29.7577C11.7519 29.7359 11.6611 29.7133 11.5705 29.6897C11.6723 29.7319 11.5991 29.7444 11.3138 29.6794C11.0791 29.6229 11.3543 29.6474 10.847 29.5365C10.812 29.5271 10.7392 29.5481 10.2664 29.4103C9.7017 29.2365 9.98389 29.2996 9.88412 29.2665C9.86465 29.2597 9.6879 29.2171 9.52827 29.1606C9.43761 29.1287 9.35665 29.0827 9.34485 29.0782C9.28939 29.0574 9.26551 29.0693 9.18879 29.0397C8.99391 28.9646 8.74007 28.8459 8.5535 28.7618C8.46855 28.7238 8.38385 28.6973 8.34618 28.6797C8.28775 28.6523 8.22262 28.6005 8.16412 28.5718C7.94825 28.4674 7.59259 28.3491 7.53993 28.2189C7.29402 28.1779 6.93027 27.8427 6.93143 27.9065C6.74087 27.7805 6.42806 27.5841 6.12151 27.3702C5.59373 27.0066 5.09341 26.5842 5.15973 26.5581C4.83474 26.3905 4.90143 26.364 4.79085 26.2663C4.66771 26.1556 4.7191 26.2256 4.62316 26.1354C4.39976 25.9241 4.19657 25.7116 3.98631 25.4886C4.03003 25.5142 4.07381 25.5396 4.11757 25.5646C3.90015 25.3289 3.95044 25.432 3.72497 25.1928C3.31715 24.7463 3.50788 24.9192 3.47924 24.8286C3.46308 24.8723 3.02031 24.3139 2.98424 24.2503C2.96133 24.2136 3.11214 24.3388 2.84144 23.9969C2.84296 24.0246 2.84459 24.0524 2.84633 24.0801C2.74344 23.91 2.41684 23.4771 2.37285 23.3958C2.35115 23.3588 2.33752 23.1073 2.14537 22.9796C2.14603 22.9507 2.14681 22.9218 2.1477 22.8929C2.01433 22.7056 1.88473 22.5149 1.75908 22.3208C1.76732 22.2758 1.77584 22.2309 1.78465 22.1861C1.751 22.1219 1.71781 22.0574 1.68509 21.9927C1.68367 22.0465 1.68264 22.1003 1.68201 22.1543C1.48298 21.7516 1.22151 21.2621 1.26839 21.1443C1.21531 21.0617 1.16285 20.9785 1.11106 20.8947C1.11512 20.8262 1.11979 20.7578 1.12509 20.6896C0.95932 20.2762 0.940638 20.2746 0.811346 19.9944C0.837726 19.999 0.864085 20.0035 0.890421 20.008C0.786989 19.8052 0.635458 19.4192 0.549031 19.1042C0.506755 18.9548 0.477609 18.6888 0.466946 18.654C0.459708 18.6319 0.37363 18.4931 0.338407 18.3769C0.317589 18.3085 0.314302 18.2487 0.353615 18.2273C0.199452 17.7086 0.222413 17.4652 0.191623 17.2501C0.17256 17.1097 0.136407 17.0483 0.116044 16.8888C0.0870463 16.6607 0.0828309 16.4292 0.0721865 16.2971C0.0659771 16.2214 0.0369496 16.2081 0.0329646 16.1558C0.0155508 15.9083 0.0510656 16.0529 0.0391867 15.792C0.0380997 15.768 -0.00333142 15.5768 0.000210167 15.361C0.00105253 15.2402 0.0458059 14.9302 0.0471891 14.903C0.0509773 14.7815 -0.0360103 14.8724 0.0770994 14.4631C0.0611937 14.4739 0.0453108 14.4847 0.0294509 14.4955C0.0207592 13.9749 0.103684 13.9013 0.117375 13.7983C0.119016 13.7852 0.105499 13.6563 0.117891 13.5818C0.138763 13.4561 0.182035 13.411 0.187181 13.3834C0.204778 13.2861 0.235946 12.9519 0.309784 12.7442C0.194125 12.7693 0.301999 12.0001 0.464985 11.8674C0.472785 11.729 0.482379 11.5903 0.493778 11.4513C0.528986 11.3974 0.564565 11.3438 0.600508 11.2905C0.59109 11.2484 0.581812 11.2062 0.572675 11.1638C0.669879 10.9859 0.770884 10.8108 0.875478 10.6386C0.836679 10.6112 0.797903 10.5836 0.759152 10.5559C0.781529 10.5047 0.804186 10.4536 0.82713 10.4027C0.87518 10.3743 0.923385 10.3463 0.97174 10.3187C0.988417 10.2509 1.00558 10.1831 1.02316 10.1155C1.00463 10.0895 0.986126 10.0634 0.967666 10.0372C1.07501 9.67372 1.22807 9.95531 1.30549 9.20578C1.36955 9.11306 1.43464 9.02134 1.50082 8.93045C1.46119 8.76972 1.62011 8.58546 1.69682 8.41127C1.7511 8.28813 1.71111 8.27368 1.79673 8.11151C1.88331 7.9495 1.91546 7.9762 1.92244 7.96377C1.99709 7.83459 2.02304 7.71837 2.08471 7.62718C2.08879 7.62115 2.10297 7.6158 2.12388 7.60168C2.15056 7.58366 2.18808 7.5514 2.23002 7.48543C2.30508 7.36804 2.30614 7.26757 2.42689 7.09733C2.48895 7.01035 2.53951 7.00817 2.59485 6.93154C2.85739 6.57002 2.96618 6.06777 3.37059 5.96342C3.39111 5.88301 3.65964 5.37932 3.82572 5.20606C4.08122 4.93688 4.02222 5.07913 4.12847 4.97738C4.14425 4.96325 4.20723 4.86728 4.42752 4.64795C4.46703 4.60887 4.43824 4.59716 4.4436 4.59121C4.69751 4.33139 5.2325 3.87137 5.5448 3.62307C5.5723 3.60144 5.6665 3.41381 5.98274 3.30991C6.30535 2.95021 7.12807 2.60028 7.6032 2.18218C7.67631 2.1362 7.78151 2.11148 7.81419 2.09191C8.09698 1.92666 7.94732 1.88799 8.66988 1.68158C8.59609 1.66435 8.73405 1.54688 8.9599 1.44729C9.30009 1.30012 9.09394 1.49074 9.36323 1.36595C9.35388 1.34208 9.34453 1.31821 9.33518 1.29434C9.99199 1.09668 10.0829 0.945258 10.741 0.728519C10.7938 0.711769 10.853 0.696305 10.9139 0.682441C11.127 0.633529 11.359 0.606973 11.4036 0.595296C11.4253 0.588711 11.6744 0.458237 11.7001 0.451938C11.8423 0.414838 11.9287 0.425123 12.0522 0.397528C12.459 0.305269 12.9421 0.139897 12.8737 0.307517C12.9823 0.256357 13.0918 0.206187 13.2023 0.157025C13.6494 0.258985 13.9544 0.00212505 14.0565 0.155225C14.1317 0.114812 14.2076 0.0748297 14.284 0.0353008C16.1538 -0.0909141 18.0531 0.121817 19.8613 0.665052C19.952 0.62683 20.733 0.900199 20.7676 0.927548C20.9357 1.03118 20.6983 1.07501 21.0774 1.18743C21.1391 1.1525 21.2013 1.11784 21.2639 1.08346C21.7358 1.25299 21.4901 1.21423 21.6563 1.32381C21.7347 1.34997 21.7284 1.30048 21.8321 1.34225C21.9708 1.39832 22.1432 1.47257 22.3328 1.56043C22.9142 1.82531 23.639 2.2369 24.0617 2.50888C24.1752 2.58099 24.1344 2.60422 24.1692 2.62702C24.265 2.68915 24.484 2.77233 24.6727 2.90573C25.8525 3.71159 27.3092 5.15475 28.1288 6.34442C28.1855 6.42433 28.1497 6.46446 28.187 6.51876C28.2389 6.59367 28.3941 6.73486 28.4459 6.81633C28.4949 6.89273 28.4945 6.96234 28.5453 7.04472C28.7773 7.42012 29.1538 7.89572 29.2754 8.36732C29.2884 8.40729 29.3235 8.93908 29.313 8.95462C29.2633 9.04767 28.9572 8.72382 29.1517 9.40403C28.7753 8.88959 28.707 9.14938 28.9456 9.90427C28.763 9.55107 28.5673 9.20612 28.3592 8.8703C28.3389 8.88016 28.3185 8.89002 28.2982 8.89988C28.3666 9.26587 28.491 9.59344 28.6957 10.0906C28.6695 10.0834 28.6432 10.0762 28.617 10.0691C28.3328 9.67637 28.0602 9.17922 27.7629 8.93709C27.9195 9.44047 28.0448 9.94849 28.1389 10.4572C28.1137 10.44 28.0885 10.423 28.0633 10.4061C27.9319 10.198 27.6876 9.73061 27.5603 9.57114C27.0827 8.963 27.7505 10.2153 27.5578 10.0469C27.2301 9.32557 26.8398 8.63243 26.3929 7.97806C26.3958 7.96112 27.658 10.7121 27.373 10.7807C27.2705 10.5625 27.1624 10.3474 27.0487 10.1355C27.0458 10.2549 27.0411 10.3738 27.0344 10.492C27.0075 10.472 26.9805 10.4522 26.9535 10.4325C26.7556 10.0843 26.5431 9.74665 26.317 9.42049C26.9247 10.4577 27.0718 11.0204 26.7742 11.4245C26.7536 11.3985 26.7329 11.3726 26.7122 11.3468C26.8856 11.0141 26.3278 9.92658 25.9571 9.40741C25.9588 9.55621 26.2682 10.0238 26.276 10.1524C26.2788 10.1882 26.1812 10.1073 26.1905 10.1886C26.2239 10.3994 26.462 11.2179 26.3319 11.1369C26.2664 11.0759 25.6454 9.88968 25.5063 9.66892C25.7175 10.2518 25.9511 10.8345 26.0427 11.4435C25.751 11.1507 25.4503 10.9301 25.1489 10.3344C24.9981 10.191 25.4552 11.5233 25.3986 11.5751C25.2685 11.3699 25.1327 11.1697 24.992 10.9754C25.084 11.1527 25.1715 11.3329 25.2541 11.5152C25.2382 11.5225 25.2223 11.5297 25.2063 11.5369C24.9497 11.0828 24.6324 10.7227 24.3674 10.2054C24.2999 10.2677 24.467 10.5696 24.5366 10.7222ZM25.7259 24.4278C25.7421 24.4216 25.5766 24.6359 25.4802 24.7541C25.4959 24.7373 25.5115 24.7205 25.527 24.7036C25.4386 24.8138 25.3147 24.9628 25.1999 25.097C25.0503 25.2725 24.9173 25.4221 24.9166 25.4394C24.7606 25.6126 24.818 25.5244 24.7654 25.5779C24.7449 25.5989 24.5424 25.8267 24.3588 25.9866C24.3175 26.027 24.2758 26.0672 24.2339 26.1071C24.2304 26.12 24.2269 26.1329 24.2234 26.1458C24.1592 26.1951 24.0945 26.2436 24.0292 26.2914C24.4414 25.914 24.8298 25.5126 25.1922 25.0901C25.3769 24.8748 25.5544 24.6545 25.7251 24.4288C25.7254 24.4284 25.7257 24.4281 25.7259 24.4278ZM18.9596 29.2512C18.6628 29.3446 18.2001 29.4602 18.3 29.464C18.4897 29.4103 18.6782 29.3527 18.8652 29.2912C18.8968 29.278 18.9282 29.2646 18.9596 29.2512ZM0.93287 10.7005C1.09309 10.4652 1.1126 10.2016 1.28434 9.80912C1.26878 9.80298 1.25321 9.79684 1.23764 9.79071C1.20799 9.9688 1.02018 10.3917 0.93287 10.7005ZM28.4309 17.5248C28.437 17.47 28.4426 17.4151 28.448 17.3602C28.4294 17.584 28.4233 17.6236 28.3915 17.8756C28.3895 17.8908 28.3911 17.8856 28.3904 17.8909C28.3824 17.9525 28.3733 18.0093 28.3652 18.0649C28.3494 18.1721 28.3378 18.2596 28.3051 18.4489C28.2792 18.5951 28.2761 18.5959 28.2665 18.6472C28.2591 18.691 28.1794 19.1252 28.1056 19.3998C27.9921 19.927 28.4618 17.6948 28.4309 17.5248ZM28.5055 15.9346C28.5062 15.9877 28.5066 16.0407 28.5067 16.0938C28.5055 15.9341 28.5086 16.2563 28.5009 16.4928C28.5019 16.4853 28.5104 15.9853 28.502 15.7616C28.5034 15.8193 28.5046 15.8769 28.5055 15.9346ZM26.9307 22.4282C27.0275 22.2416 27.0194 22.2771 27.0183 22.2865C26.9879 22.3461 26.957 22.4056 26.9257 22.4647C26.9274 22.4525 26.929 22.4403 26.9307 22.4282ZM27.5829 20.992C27.5658 21.0553 27.3967 21.4783 27.3064 21.6747C27.3024 21.6832 27.3241 21.6279 27.2609 21.7669C27.2435 21.8093 27.0581 22.2218 27.0878 22.1252C27.2697 21.7548 27.4348 21.3768 27.5827 20.9926C27.5827 20.9924 27.5828 20.9922 27.5829 20.992ZM27.7448 20.5624C27.718 20.6438 27.6905 20.725 27.6623 20.806C27.6446 20.8467 27.6267 20.8872 27.6085 20.9276C27.6428 20.8363 27.6761 20.7446 27.7084 20.6527C27.7207 20.6226 27.7328 20.5925 27.7448 20.5624ZM20.5813 1.7719C20.5738 1.73115 20.5661 1.69041 20.5583 1.64969C20.485 1.59794 20.0381 1.60639 20.1526 1.67744C20.2957 1.70689 20.4384 1.7383 20.5813 1.7719ZM22.1485 2.54999C22.2162 2.60552 22.2835 2.66181 22.35 2.71851C22.4672 2.71142 22.5851 2.70559 22.7039 2.7011C22.3475 2.451 21.9508 2.20635 21.935 2.4001C21.9255 2.39542 21.916 2.39075 21.9066 2.38609C21.8274 2.3472 21.748 2.30905 21.6683 2.27164C21.7763 2.24047 21.779 2.21247 21.5625 2.06164C21.4659 2.13158 21.2442 1.97322 20.9504 1.87924C21.1547 1.9683 21.3572 2.06197 21.5574 2.16011C21.5494 2.17658 21.5415 2.19304 21.5336 2.2095C21.0986 2.00799 21.5671 2.33142 21.8867 2.4246C21.8968 2.42748 21.9068 2.43013 21.9167 2.4325C21.9281 2.46548 21.9395 2.49846 21.9507 2.53147C22.0165 2.53724 22.0825 2.54341 22.1485 2.54999ZM1.34869 20.167C1.33916 20.1086 1.33003 20.0502 1.32131 19.9917C1.1249 19.8149 1.38461 20.2171 1.40542 20.5585C1.43973 20.4314 1.6173 20.8998 1.63506 20.9236C1.63747 20.8609 1.64042 20.7984 1.64391 20.736C1.54194 20.549 1.4435 20.3593 1.34869 20.167ZM0.990072 18.5505C0.979896 18.6455 0.928164 18.5013 0.875163 18.2811C0.809653 18.0134 0.750838 17.6338 0.734952 17.4502C0.727284 17.369 0.747466 17.2212 0.735967 17.1634C0.717594 17.1295 0.69931 17.0954 0.681112 17.0613C0.72273 17.0154 0.608413 16.3688 0.573798 16.1095C0.591117 16.0847 0.608529 16.06 0.626035 16.0354C0.615081 15.9417 0.604997 15.8475 0.595793 15.7534C0.614521 15.7652 0.633249 15.777 0.651978 15.7888C0.628273 15.7178 0.604988 15.6467 0.582133 15.575C0.556621 15.2942 0.657932 15.4694 0.628409 15.2587C0.597124 15.0236 0.529995 15.4046 0.491803 15.3971C0.499767 15.5887 0.532915 16.022 0.545824 16.2146C0.553579 16.325 0.472373 16.2036 0.588469 16.6761C0.578969 16.7815 0.570767 16.8873 0.563856 16.9933C0.613429 17.1824 0.666356 17.3701 0.722536 17.556C0.703013 17.5944 0.683711 17.6331 0.664611 17.6718C0.662409 17.6932 0.793705 18.1226 0.808788 18.0956C0.804917 18.1477 0.807224 18.2144 0.814772 18.2919C0.833679 18.4875 0.886714 18.7509 0.954103 19.021C0.976096 19.0543 0.99817 19.0875 1.02032 19.1205C0.89976 18.7634 1.00414 19.0018 1.00147 18.888C0.999937 18.8225 0.983354 18.6249 0.990072 18.5505ZM17.9347 1.13606C18.5971 1.16389 18.1849 1.15841 18.873 1.3187C18.8388 1.25562 18.804 1.19274 18.7686 1.13008C18.4038 1.14023 17.8528 0.976113 17.934 1.13594C17.9343 1.13598 17.9345 1.13602 17.9347 1.13606ZM24.3561 3.72914C24.0272 3.53169 24.1298 3.7119 23.7196 3.46244C23.7194 3.46231 23.7192 3.46218 23.719 3.46205C23.9201 3.60639 24.1174 3.7556 24.3108 3.90961C24.3262 3.84953 24.3413 3.78937 24.3561 3.72914ZM4.41842 5.53645C4.16679 5.78501 4.23743 5.75454 3.97984 5.95482C3.73121 6.37209 3.98254 6.05419 4.03535 6.10152C4.08976 6.00523 4.14551 5.90907 4.20225 5.81344C4.42625 5.66193 4.28424 5.87106 4.28924 5.87518C4.28939 5.87502 4.28953 5.87486 4.28968 5.87469C4.30535 5.88919 4.30285 5.89831 4.37927 5.83253C4.39137 5.73423 4.40442 5.63553 4.41842 5.53645ZM3.5183 6.74837C3.55484 6.62444 3.54038 6.54183 3.32689 6.7799C3.32676 6.78009 3.32663 6.78026 3.3265 6.78044C3.39245 6.86319 3.14813 7.05982 3.07558 7.17939C3.06392 7.21591 3.05241 7.25244 3.04103 7.28896C3.1957 7.10429 3.35484 6.92406 3.5183 6.74837ZM1.25224 11.4556C1.15361 11.4269 1.21775 11.1685 1.0239 11.4988C1.00604 11.5691 0.988724 11.6396 0.971913 11.7102C0.981316 11.7624 0.990945 11.8145 1.0008 11.8663C0.617683 12.7152 0.838109 13.0476 1.10572 11.5237C1.10572 11.5235 1.10571 11.5233 1.1057 11.523C1.15442 11.5002 1.20327 11.4777 1.25224 11.4556ZM1.77794 9.94565C1.73127 9.91251 1.68464 9.87924 1.63804 9.84583C1.83972 9.71452 1.8255 9.41907 2.08596 9.10534C2.08639 9.06527 2.08697 9.02512 2.0877 8.98489C2.15462 8.90098 2.52291 8.24017 2.67484 7.95078C2.73603 7.82932 2.75351 7.7684 2.68234 7.83343C2.66052 7.85349 2.63842 7.88175 2.61708 7.91418C2.53484 8.03865 2.46632 8.22406 2.45545 8.24146C2.40809 8.31556 2.30897 8.39064 2.24077 8.52329C2.20121 8.60021 2.1672 8.78786 2.08884 8.94408C1.91088 9.28858 1.48066 9.88521 1.43782 10.4231C1.40952 10.4516 1.38134 10.4804 1.35329 10.5093C1.23609 10.8734 1.32635 10.7695 1.1589 11.087C1.31411 11.3986 1.62186 9.74065 1.705 10.1475C1.70508 10.1473 1.70516 10.1471 1.70525 10.1469C1.729 10.0796 1.7532 10.0126 1.77794 9.94565ZM8.76027 2.41567C8.80438 2.45596 9.17165 2.18552 9.13239 2.35653C9.24471 2.25204 9.35881 2.14875 9.47533 2.04645C9.46948 2.03491 9.46362 2.02336 9.45776 2.01182C9.32747 2.07855 9.19863 2.14693 9.07065 2.2172C9.06198 2.19879 9.05331 2.18038 9.04463 2.16197C8.87329 2.31358 8.06121 2.70299 8.0538 2.63277C8.02542 2.68283 7.99739 2.73288 7.96972 2.78294C7.55492 2.92669 7.28256 3.19663 6.85252 3.39753C6.8358 3.43851 6.81928 3.47945 6.80297 3.52037C6.77271 3.51773 6.74242 3.5152 6.71211 3.51279C6.57071 3.60991 6.43105 3.70948 6.29318 3.81147C5.89749 4.2119 6.81431 3.63886 6.91949 3.56469C6.9329 3.55356 6.90252 3.5127 6.98801 3.44484C7.13519 3.31572 8.08181 2.79516 8.36724 2.61839C8.38534 2.64785 8.40343 2.67733 8.4215 2.70681C8.53259 2.60858 8.64554 2.5115 8.76027 2.41567ZM0.717127 13.4114C0.68673 13.4308 0.65641 13.4503 0.62617 13.4699C0.596938 13.887 0.553852 14.1446 0.651664 14.0492C0.651685 14.049 0.651707 14.0487 0.651728 14.0485C0.668856 13.8359 0.690656 13.6235 0.717127 13.4114ZM20.3187 28.5572C20.3016 28.5436 20.126 28.6136 19.9038 28.7183C19.9168 28.7192 19.9298 28.7202 19.9428 28.7211C20.0547 28.6566 20.2142 28.6257 20.5709 28.4565C20.567 28.4477 20.5632 28.439 20.5593 28.4302C20.4796 28.4732 20.3993 28.5155 20.3187 28.5572ZM0.784076 13.0602C0.836037 12.9423 0.80602 12.5729 0.757658 12.8019C0.721374 12.9777 0.755902 13.1239 0.784076 13.0602ZM25.4554 4.74744C25.3893 4.67436 25.3224 4.60197 25.2548 4.53016C25.1903 4.52473 25.126 4.51968 25.0619 4.51507C25.0621 4.51522 25.0623 4.51537 25.0624 4.51552C25.1941 4.5907 25.3251 4.66799 25.4554 4.74744ZM5.27165 4.68021C5.03574 4.90194 4.8073 5.13121 4.5869 5.36736C4.59743 5.38242 4.60797 5.39746 4.61851 5.4125C4.79575 5.13305 4.94015 5.09436 4.9964 5.04525C4.99616 5.04549 4.99592 5.04572 4.99569 5.04595C5.17861 4.88829 5.35457 4.74028 5.53966 4.60633C5.45026 4.62984 5.36092 4.65446 5.27165 4.68021ZM6.18859 4.0557C6.06791 3.9844 5.99619 4.01377 5.67557 4.40582C5.70068 4.40548 5.72577 4.40524 5.75085 4.40507C5.94011 4.23238 6.03939 4.11586 6.04605 4.19807C6.09321 4.15035 6.14072 4.10289 6.18859 4.0557ZM2.80919 7.74156C2.87091 7.71188 3.0967 7.29948 3.06793 7.30964C3.05347 7.31143 2.68308 7.79686 2.80919 7.74156ZM23.2017 26.8312C23.1198 26.8919 23.0373 26.9515 22.9539 27.0103C23.0611 26.9269 23.1669 26.8422 23.2715 26.756C23.2484 26.7811 23.2251 26.8062 23.2017 26.8312ZM24.031 26.0819C24.0863 26.0352 23.9309 26.2154 24.2517 25.9239C24.0233 26.1415 23.7874 26.3513 23.5443 26.5531C23.6557 26.4554 23.7658 26.356 23.8741 26.2552C23.85 26.2667 23.8259 26.278 23.8017 26.2893C23.8789 26.221 23.9555 26.1518 24.031 26.0819ZM24.2903 25.8649C24.1584 25.9713 24.792 25.344 24.8446 25.2795C24.8576 25.2663 24.9265 25.2107 24.9503 25.1885C24.8597 25.288 24.7673 25.3865 24.6738 25.4833C24.7081 25.4538 24.7422 25.4241 24.7761 25.3942C24.6688 25.5098 24.5592 25.6239 24.4479 25.736C24.493 25.6854 24.5377 25.6345 24.5821 25.5834C24.4863 25.6787 24.389 25.7725 24.2903 25.8649ZM21.4034 27.9876C21.5032 27.9335 21.6024 27.8781 21.7008 27.8215C21.6769 27.8252 21.653 27.8288 21.6291 27.8324C21.5703 27.8661 21.5112 27.8994 21.4518 27.9322C21.4357 27.9507 21.4196 27.9692 21.4034 27.9876ZM23.3196 26.7036C23.2131 26.8365 22.8069 27.0409 23.2413 26.7474C23.2848 26.7174 23.3297 26.6911 23.3196 26.7036ZM25.0719 25.0349C25.0807 25.0237 25.0891 25.013 25.0971 25.0029C25.2633 24.7921 25.2632 24.8403 25.1096 25.0144C25.0895 25.0369 25.0667 25.0614 25.0412 25.0877C25.0296 25.0995 25.0556 25.0557 25.0719 25.0349ZM26.613 22.9195C26.6271 22.8951 26.6637 22.8592 26.7865 22.6185C26.8092 22.5803 26.8318 22.5419 26.8541 22.5034C26.8155 22.6011 26.3591 23.3685 26.4103 23.2548C26.4829 23.1391 26.5407 23.0408 26.613 22.9195ZM26.1115 23.6215C26.036 23.7318 25.9591 23.8408 25.8804 23.9489C25.9098 23.9158 25.939 23.8826 25.9679 23.8492C25.9306 23.9034 25.8928 23.9573 25.8547 24.011C25.7822 24.097 25.7084 24.1822 25.6334 24.266C25.8111 24.0362 25.9812 23.8011 26.1438 23.5608C26.1331 23.581 26.1223 23.6013 26.1115 23.6215ZM23.7291 26.2453C23.9295 26.0834 24.161 25.8685 24.4596 25.5761C24.4597 25.576 24.4599 25.5759 24.46 25.5758C24.4749 25.5612 24.5062 25.5404 24.5537 25.4929C24.5776 25.47 24.8482 25.191 25.0516 24.9613C25.202 24.7931 25.3187 24.655 25.2983 24.6865C25.2015 24.8064 25.1227 24.8968 25.0592 24.9683C24.9426 25.0992 24.8789 25.1658 24.8447 25.2271C24.8262 25.2389 24.8077 25.2507 24.7891 25.2623C24.4923 25.5594 24.4176 25.6548 24.252 25.8241C24.2497 25.8202 24.2473 25.8163 24.245 25.8124C24.1302 25.9204 24.0132 26.0265 23.8945 26.1305C23.9132 26.1181 23.9319 26.1056 23.9505 26.0931C23.9088 26.1303 23.8668 26.1672 23.8246 26.2039C23.7131 26.2827 23.5789 26.3905 23.7291 26.2453ZM26.4477 23.1181C26.503 23.0068 27.1124 21.971 27.3182 21.4614C27.2116 21.729 27.0083 22.1265 26.8567 22.4016C26.5608 22.9319 26.772 22.5693 26.7248 22.661C26.7021 22.7068 26.5149 22.9963 26.4477 23.1181ZM22.9965 26.8361C23.2424 26.6566 23.3707 26.5442 23.5821 26.3873C23.5668 26.4035 23.5514 26.4196 23.536 26.4356C23.4682 26.4954 22.8785 26.9348 22.9965 26.8361ZM27.6283 20.7211C27.4107 21.2627 27.529 21.0004 27.4019 21.2762C27.4802 21.0922 27.5544 20.9067 27.6246 20.7197C27.6258 20.7202 27.627 20.7207 27.6283 20.7211ZM1.42184 12.4813C1.48143 12.2348 1.57881 11.969 1.57016 11.8084C1.51539 11.9721 1.46372 12.137 1.41516 12.3029C1.41705 12.3625 1.41928 12.4219 1.42184 12.4813ZM2.05637 19.4854C2.05065 19.4291 1.96261 19.2245 1.95703 19.2018C1.94604 19.16 1.96397 19.1675 1.96769 19.1659C1.89516 18.8925 1.91257 19.1575 1.85183 18.9563C1.83971 18.9221 1.75413 18.4357 1.71821 18.2389C1.71133 18.204 1.70467 18.169 1.69826 18.1343C1.64879 17.8682 1.61649 17.6174 1.60264 17.5166C1.57537 17.3241 1.49801 16.9688 1.47531 16.6484C1.46597 16.5165 1.49407 16.4687 1.48735 16.3364C1.41925 15.4872 1.51837 13.8014 1.71372 13.0654C1.75567 12.8828 1.83817 12.719 1.85765 12.6224C1.86007 12.5431 1.86313 12.4636 1.86683 12.384C2.06786 12.1891 1.96394 12.0798 2.02461 11.827C2.06394 11.6671 2.12983 11.6075 2.13637 11.5866C2.1807 11.4476 2.18428 11.3726 2.21881 11.263C2.25752 11.1399 2.34103 10.9734 2.35424 10.9292C2.36344 10.9024 2.26973 10.9638 2.46048 10.4992C2.65868 10.0275 2.88476 9.57516 3.14027 9.12231C2.89362 9.18412 2.93343 9.3794 2.84338 9.57135C2.81924 9.62324 2.8095 9.57765 2.78835 9.62284C2.72799 9.75034 2.63866 10.0059 2.58516 10.1091C2.52709 10.2206 2.48326 10.1543 2.44225 10.3109C2.44023 10.3188 2.47548 10.3063 2.46491 10.3426C2.36066 10.7075 2.2693 10.8028 2.10925 11.2523C1.96922 11.5414 1.54781 13.4113 1.55122 13.4789C1.38326 13.8012 1.79599 11.8095 1.91343 11.5946C1.94087 11.5161 1.94269 11.6081 1.97097 11.5378C1.98271 11.5082 2.01723 11.2155 2.11208 10.945C2.22198 10.6161 2.53113 9.9924 2.67757 9.69828C2.89143 9.25347 3.13012 8.82166 3.39173 8.40503C4.62912 6.43191 6.37942 4.81309 8.42472 3.6899C8.47761 3.66104 8.52741 3.58592 8.70232 3.49461C9.55062 3.05369 10.4546 2.69929 11.3915 2.44385C14.0597 1.70797 16.9848 1.8209 19.5998 2.71914C20.2005 2.92372 20.7954 3.14492 21.3628 3.43949C21.523 3.52274 21.6804 3.61161 21.8346 3.70758C21.942 3.72507 22.0498 3.74397 22.1578 3.76404C21.9174 3.65408 21.5315 3.35407 21.4912 3.33391C21.4852 3.33065 21.4616 3.32713 21.4253 3.31831C21.3773 3.30667 21.3072 3.2858 21.2253 3.24438C21.0231 3.14255 20.9471 3.06965 20.9303 3.06167C20.8778 3.03756 20.8962 3.08781 20.8461 3.06491C20.4723 2.89487 20.1731 2.78655 19.8193 2.65864C19.4196 2.51638 19.2323 2.38753 18.9132 2.37408C18.8878 2.33614 18.8621 2.29831 18.8362 2.26059C18.58 2.30603 17.2447 2.00002 16.6885 1.94924C16.5145 1.92744 16.5505 1.88165 16.4916 1.87551C16.4539 1.87312 16.4623 1.93366 16.0059 1.88775C15.7759 1.86658 15.7175 1.81792 15.6012 1.81487C15.538 1.8136 15.5464 1.86041 15.456 1.85788C14.9333 1.84522 14.5055 1.84198 13.9936 1.87289C13.8498 1.88223 13.8451 1.84517 13.8129 1.84851C13.6942 1.86146 13.4948 1.94467 13.1967 1.98516C12.7122 2.04273 11.7704 2.24207 11.3619 2.3347C11.3547 2.33618 11.3477 2.33761 11.3408 2.339C11.2822 2.35079 11.2229 2.32249 11.1807 2.33548C11.117 2.35533 11.1048 2.40652 11.0937 2.41007C10.8814 2.47553 10.997 2.39602 10.8578 2.45055C10.7829 2.48045 10.7187 2.55473 10.5449 2.62072C10.3159 2.70902 10.3412 2.63668 10.2467 2.67773C10.2368 2.68246 10.248 2.72292 10.1543 2.75986C9.79773 2.89839 9.29351 3.12894 8.97022 3.28983C8.87715 3.33567 8.79574 3.34539 8.66688 3.41186C8.39299 3.52291 7.0002 4.42505 6.89543 4.51272C6.88288 4.52011 6.96812 4.38488 6.77911 4.52638C6.73837 4.58681 6.69818 4.64735 6.65853 4.70801C6.54469 4.74648 6.4311 4.78682 6.31782 4.82904C6.40011 4.92849 5.90303 5.37385 5.82174 5.2723C5.76294 5.31732 5.70449 5.36286 5.6464 5.40888C5.59545 5.58142 5.49678 5.62511 5.32351 5.87126C5.27128 5.88365 5.21905 5.89645 5.16683 5.90966C5.17178 5.93112 5.17677 5.95255 5.1818 5.97394C4.99882 6.01563 4.89373 6.27598 4.87345 6.29918C4.79323 6.38947 4.71404 6.44028 4.67693 6.48339C4.53675 6.64302 4.26958 7.01721 4.10745 7.20358C4.09972 7.21229 4.07379 7.17732 4.02675 7.2302C3.94223 7.32607 3.98323 7.372 3.82554 7.46618C3.81966 7.50459 3.81395 7.54292 3.80841 7.58118C3.77976 7.60515 3.7512 7.62927 3.72272 7.65356C3.60258 7.83155 3.48667 8.01208 3.37511 8.1949C3.41771 8.01631 3.30073 8.12646 3.22744 8.30093C3.21796 8.3235 3.20924 8.3471 3.20171 8.3712C3.17961 8.44227 3.24847 8.40998 3.24131 8.43375C3.22457 8.46199 2.7345 9.28726 2.68922 9.3364C2.6799 9.38291 2.67081 9.42937 2.66195 9.47581C2.62873 9.48469 2.59553 9.49372 2.56237 9.50291C2.55925 9.52956 2.55621 9.5562 2.55325 9.5828C2.39877 9.78771 2.23455 10.4272 2.18706 10.5332C2.16035 10.5902 2.0798 10.4962 1.98295 10.784C2.00659 10.8043 2.03025 10.8245 2.05393 10.8447C2.03384 10.9108 2.01424 10.977 1.99512 11.0433C1.94913 11.1639 1.84239 11.3264 1.8082 11.3215C1.81505 11.3667 1.82208 11.4117 1.82929 11.4566C1.73008 11.5383 1.59059 12.1054 1.57842 12.3422C1.54297 12.4034 1.50801 12.4651 1.47356 12.5272C1.47623 12.6223 1.47976 12.7171 1.48414 12.8116C1.44818 13.0204 1.45485 12.7931 1.44251 12.8365C1.41406 12.929 1.39271 13.42 1.31875 13.3745C1.30765 13.4401 1.29703 13.5059 1.28689 13.5717C1.30485 13.6093 1.32291 13.6467 1.34107 13.6839C1.24604 13.7847 1.24375 13.9843 1.17727 14.3851C1.19231 14.4208 1.20745 14.4563 1.22269 14.4918C1.18644 14.614 1.15203 14.737 1.11949 14.8609C1.14783 14.8886 1.17619 14.9161 1.20459 14.9435C1.20604 14.998 1.2078 15.0524 1.20987 15.1068C1.13879 15.2141 1.20552 15.4151 1.17753 15.5151C1.13737 15.6618 1.0885 15.5475 1.08564 15.2718C1.0315 15.2905 1.0558 16.1133 1.07534 16.3015C1.08392 16.2887 1.09252 16.2759 1.10115 16.2631C1.08507 16.0703 1.07291 15.8772 1.06468 15.6837C1.18405 15.5232 1.15314 16.0452 1.18232 16.2839C1.18507 16.3057 1.23411 16.4276 1.24701 16.6674C1.25059 16.76 1.22032 17.1278 1.22601 17.1978C1.26691 17.7596 1.30022 17.3376 1.30428 17.8928C1.33641 17.7991 1.34242 17.9643 1.3787 18.1913C1.38981 18.2607 1.40376 18.3358 1.42178 18.4107C1.43298 18.4659 1.58424 18.9177 1.59477 18.9476C1.65057 19.1388 1.54598 18.9411 1.63195 19.2171C1.65407 19.2472 1.67626 19.2772 1.69851 19.307C1.71619 19.3716 1.73431 19.436 1.75295 19.5004C1.75271 19.9242 1.87201 19.989 1.92781 20.122C1.95115 20.1758 1.89695 20.1146 1.95327 20.2557C1.97471 20.3087 2.01964 20.36 2.07492 20.503C2.25026 20.948 2.21816 21.1416 2.50343 21.4974C2.51754 21.5653 2.53229 21.6332 2.54765 21.7011C2.58487 21.734 2.62215 21.7667 2.65948 21.7992C2.76766 22.1352 2.76191 21.9972 2.81929 22.1092C2.96883 22.4063 3.31191 22.9937 3.31012 23.0657C3.54773 23.2554 3.64929 23.5985 3.72001 23.689C3.76903 23.737 3.81826 23.7847 3.86775 23.8319C3.905 23.9026 3.94302 23.9731 3.98172 24.0432C4.0334 23.9561 4.21098 24.3354 4.23666 24.3663C4.26219 24.4046 4.69144 24.8682 4.85354 25.0374C5.01104 25.2107 5.28282 25.5161 5.30947 25.5406C5.33879 25.5701 5.64312 25.8293 5.87818 26.0334C5.9778 26.1219 6.31908 26.4237 6.65198 26.6768C6.9976 26.9426 7.32968 27.1582 7.29662 27.1142C7.21447 27.0472 7.096 26.9551 6.99317 26.876C6.93492 26.8312 6.82454 26.7488 6.682 26.6375C6.0226 26.1594 4.84293 24.9732 4.54566 24.5783C3.77068 23.6513 3.0813 22.5834 2.57902 21.4777C2.54945 21.4127 2.5694 21.3917 2.5447 21.3358C2.50675 21.2512 2.38801 21.0456 2.35369 20.9604C2.22294 20.6439 2.08583 20.2504 2.02887 20.0762C1.8999 19.6873 1.83965 19.4121 1.7646 19.1119C1.74004 19.0188 1.58988 18.5491 1.54528 18.2148C1.54439 18.1972 1.54353 18.1796 1.54272 18.1621C1.54068 18.1182 1.53888 18.0744 1.53732 18.0305C1.54496 18.0637 1.55514 18.1074 1.56713 18.1577C1.61541 18.364 1.69894 18.6791 1.74056 18.8426C1.81653 19.1457 1.83905 19.3085 1.87046 19.4197C1.89524 19.5137 2.06397 19.9784 2.14061 20.1895C2.16372 20.2553 2.14111 20.2783 2.16143 20.3346C2.27079 20.64 2.43348 21.0361 2.57448 21.2807C2.51632 21.1809 2.8042 21.8372 2.82575 21.8688C2.85495 21.9263 2.90954 21.9769 2.97087 22.093C3.09011 22.3152 3.02755 22.314 3.23103 22.5616C3.25689 22.6368 3.28356 22.712 3.31102 22.7869C3.36633 22.7581 3.82626 23.6401 4.06952 23.8116C4.06952 23.8195 3.37873 22.7428 3.33996 22.6433C3.01998 22.0979 2.59387 21.2612 2.38772 20.6819C2.32019 20.5092 2.17392 19.9462 2.16265 19.9044C2.13988 19.8377 2.13399 19.9064 2.12379 19.8777C1.9207 19.2868 2.06594 19.5689 2.05637 19.4854ZM24.2182 25.7874C24.0783 25.9174 23.9357 26.0445 23.7903 26.1685C23.7975 26.1555 23.8047 26.1426 23.8118 26.1296C23.8792 26.0739 23.9461 26.0175 24.0123 25.9605C24.0603 25.9133 24.108 25.8657 24.1552 25.8179C24.1763 25.8078 24.1972 25.7976 24.2182 25.7874ZM24.5419 25.4453C24.6568 25.3263 24.6687 25.3269 24.6957 25.2999C24.7759 25.2189 24.8407 25.1445 24.9156 25.0633C24.8463 25.1727 24.6514 25.3628 24.5419 25.4453ZM21.8446 27.5287C21.8773 27.5114 22.1092 27.4117 22.3307 27.2313C22.5135 27.1237 22.6938 27.0113 22.8712 26.8943C22.572 27.0959 22.1601 27.3783 22.008 27.4691C21.9506 27.5039 21.9344 27.5017 21.8883 27.5292C21.623 27.6873 21.369 27.8511 21.3247 27.8346C21.5875 27.7059 21.8027 27.5513 21.8446 27.5287ZM23.383 26.4822C23.4254 26.4563 23.4676 26.4302 23.5097 26.4037C23.3714 26.5166 23.2308 26.6268 23.0881 26.7343C23.1229 26.7 23.1575 26.6657 23.1919 26.6312C23.256 26.5822 23.3197 26.5325 23.383 26.4822ZM10.3776 28.6411C10.482 28.6779 10.5867 28.7134 10.6919 28.7477C10.689 28.737 10.5688 28.6976 10.5269 28.6764C10.5271 28.6765 10.5273 28.6766 10.5275 28.6766C10.4808 28.6531 10.5057 28.649 10.4186 28.6129C10.405 28.6223 10.3913 28.6317 10.3776 28.6411ZM22.2172 3.92932C22.3932 4.00374 23.8002 5.01624 23.7338 4.86625C23.707 4.77918 23.2026 4.45264 23.0567 4.35453C22.8664 4.21488 22.3756 3.78357 22.2172 3.92932ZM24.6385 5.80756C24.7365 5.75152 23.9309 5.01242 23.83 4.96707C23.8388 4.99202 23.8463 5.03781 23.865 5.06225C23.9596 5.17748 24.4918 5.62267 24.6385 5.80756ZM5.26687 25.2658C5.31163 25.342 5.35721 25.4178 5.40389 25.4932C5.40719 25.4576 5.41066 25.4219 5.41432 25.3863C5.36495 25.3465 5.31585 25.3063 5.26687 25.2658ZM1.50957 17.965C1.27353 16.5489 1.26292 15.0945 1.47866 13.6738C1.47589 13.8013 1.47481 13.9285 1.47536 14.0556C1.31489 15.2785 1.32614 16.6091 1.53277 17.7823C1.52457 17.8432 1.51682 17.9039 1.50957 17.965ZM21.4677 27.6785C21.1474 27.8527 20.8788 27.9991 20.5105 28.148C20.8483 27.978 21.0266 27.9158 21.3413 27.7251C21.3415 27.725 21.3417 27.7249 21.3419 27.7248C21.3839 27.7096 21.4258 27.6942 21.4677 27.6785ZM13.5967 29.2731C13.7088 29.2704 13.8205 29.2666 13.9321 29.2615C13.7991 29.2512 13.6665 29.239 13.534 29.2248C13.5548 29.241 13.5757 29.2571 13.5967 29.2731ZM5.13017 6.48784C5.33443 6.152 6.1365 5.58038 6.32361 5.32358C6.33575 5.30618 6.16873 5.39675 6.35473 5.14984C6.18828 5.3054 6.07767 5.4225 6.10146 5.47557C6.03843 5.50524 5.97555 5.53553 5.91284 5.56642C5.83917 5.65165 5.76657 5.73765 5.69512 5.82432C5.66649 5.77591 5.66124 5.78378 5.56361 5.92968C5.49776 5.97389 5.43226 6.01878 5.36712 6.06435C5.35996 6.10423 5.35297 6.14404 5.34615 6.1838C5.27577 6.20907 5.20551 6.2351 5.13539 6.26189C4.97855 6.47815 5.13477 6.40377 5.13017 6.48784ZM4.25656 7.49662C4.28227 7.43921 5.42904 6.0865 4.81225 6.61665C4.67444 6.77648 4.54034 6.93941 4.41008 7.1053C4.65491 7.08091 4.17534 7.42741 4.14579 7.46598C3.9953 7.63526 3.86174 7.89371 3.76835 8.02717C3.68761 8.142 3.61603 8.19483 3.5627 8.27825C3.52985 8.32971 3.49381 8.38677 3.45719 8.4465C3.29053 8.71603 3.1193 9.04223 3.14027 9.12231C3.25966 8.91085 3.38577 8.69941 3.51905 8.4857C3.52892 8.46988 3.53882 8.45404 3.54877 8.43821C3.70296 8.19521 3.89323 8.02375 4.14136 7.53666C4.2299 7.43629 4.2445 7.50764 4.25656 7.49662ZM14.2648 29.2862C14.2495 29.3204 14.9256 29.3315 14.9299 29.3158C14.9312 29.3092 14.7115 29.307 14.6802 29.3032C14.68 29.3032 14.6798 29.3032 14.6796 29.3032C14.6666 29.3017 14.7331 29.2917 14.6302 29.2859C14.5084 29.2876 14.3866 29.2877 14.2648 29.2862ZM19.7134 2.97258C19.761 3.02347 20.6668 3.37967 21.2412 3.67504C21.5194 3.81261 21.7264 3.92261 21.7483 3.92474C21.7666 3.92655 21.7584 3.89366 21.7712 3.88461C21.6095 3.82447 21.4358 3.73731 21.258 3.64239C20.9247 3.4635 20.575 3.2598 20.295 3.13967C20.1756 3.08848 20.1967 3.13932 20.1896 3.13714C20.1894 3.13702 20.1891 3.1369 20.1888 3.13678C20.122 3.10827 19.8445 2.89979 19.7134 2.97258ZM6.82614 4.87998C6.74782 4.92386 6.66986 4.96864 6.5923 5.01428C6.58925 5.04712 6.5863 5.0799 6.58347 5.11263C6.58363 5.1125 6.58379 5.11237 6.58395 5.11225C6.66365 5.03399 6.74439 4.95655 6.82614 4.87998ZM9.51013 3.3925C9.48321 3.38493 9.45625 3.37746 9.42923 3.37008C9.22437 3.45987 9.02168 3.55477 8.82148 3.65464C8.83702 3.63549 8.85262 3.61636 8.86829 3.59725C8.55384 3.72808 8.46096 3.85211 8.2999 3.93263C8.30008 3.93253 8.30025 3.93243 8.30043 3.93233C8.28309 3.94104 8.24467 3.92096 8.18141 3.95625C8.03537 4.0349 7.62463 4.27617 7.59722 4.33934C7.53468 4.46488 8.32401 3.93283 8.48673 3.85825C8.55794 3.82095 8.65801 3.80378 8.70144 3.78184C8.74893 3.75771 8.79342 3.68524 8.91045 3.62765C8.9444 3.60942 9.3464 3.47135 9.51013 3.3925ZM13.2764 2.27892C13.2024 2.24499 13.065 2.30625 13.0118 2.30729C12.9989 2.30756 13.0914 2.25743 12.9714 2.26465C12.9416 2.29391 12.912 2.32323 12.8825 2.35261C13.0133 2.32618 13.1448 2.30158 13.2764 2.27892ZM15.3973 29.2843C15.3779 29.283 15.0162 29.2898 14.9989 29.2906C14.7818 29.3203 15.5323 29.3069 15.3973 29.2843ZM23.7392 26.0517C23.6316 26.1297 24.5625 25.3265 24.9572 24.8749C25.0598 24.7642 25.133 24.6814 25.1582 24.6524C25.1603 24.6635 24.9855 24.8535 24.9641 24.8812C24.9612 24.8852 24.9614 24.886 24.9657 24.8827C24.9721 24.8776 24.9876 24.8634 25.0151 24.8366C25.0013 24.8508 24.9857 24.8671 24.9684 24.8852C24.7824 25.0845 24.3921 25.4797 24.2872 25.5721C24.2188 25.6345 24.194 25.6421 24.1835 25.6513C24.144 25.6892 23.7903 26.0211 23.7392 26.0517ZM26.1594 23.37C26.0526 23.5237 25.9424 23.6753 25.8291 23.8242C25.9601 23.6464 26.0868 23.4655 26.2091 23.2815C26.1926 23.311 26.1761 23.3405 26.1594 23.37ZM26.2869 23.1719C26.2789 23.1738 26.623 22.6398 26.7009 22.4917C26.6191 22.6621 26.4462 22.9248 26.2869 23.1719ZM17.7653 28.9471C17.4766 28.9914 17.3646 29.077 17.7085 28.9812C17.719 28.9781 17.7774 28.9453 17.7653 28.9471ZM5.37605 6.5967C5.40869 6.55888 5.88427 6.17268 5.89201 6.13018C5.90911 5.98518 5.64282 6.28818 5.52398 6.3602C5.33103 6.47635 5.51923 6.21117 5.17548 6.62205C5.17689 6.59354 5.17841 6.56495 5.18001 6.53633C4.9615 6.76232 5.12655 6.77311 5.10063 6.82517C5.09256 6.8409 4.95512 6.97874 4.93839 7.01073C4.72716 7.40524 5.33713 6.62378 5.37605 6.5967ZM10.639 28.4886C10.1016 28.2671 10.3212 28.3937 9.7697 28.166C9.74098 28.183 10.5598 28.4873 10.639 28.4886ZM2.39113 11.2942C2.58005 10.7259 2.82 10.2958 3.01016 9.76829C2.87688 9.7449 2.29278 11.4272 2.39113 11.2942ZM25.0304 7.26094C24.151 5.89846 22.7208 4.70095 21.1283 3.89378C20.4549 3.5492 19.7544 3.26824 19.0553 3.04505C18.7989 2.96401 18.7892 2.90499 18.6937 2.88318C18.6311 2.86932 18.6297 2.91544 18.5481 2.89282C16.1971 2.24596 13.7646 2.29724 11.5157 2.90221C10.9335 3.05868 10.3626 3.25215 9.80547 3.48081C9.63278 3.54217 8.78105 3.85855 8.67392 4.06488C8.59006 4.21316 9.12417 3.85224 9.22382 3.81005C9.29672 3.77594 9.31888 3.81461 9.36737 3.79216C9.41891 3.76845 9.36346 3.76065 9.42323 3.73263C9.67651 3.61375 9.96288 3.50714 10.1978 3.41446C10.6364 3.24087 11.0825 3.09252 11.5339 2.9693C13.4544 2.44521 15.466 2.37634 17.4231 2.75283C17.7156 2.81047 17.6468 2.84026 17.6615 2.84299C17.6617 2.84293 17.662 2.84287 17.6622 2.84282C18.7672 3.07654 19.969 3.44325 21.0717 4.00335C21.5217 4.23097 21.9542 4.48852 22.3545 4.77193C23.325 5.46312 24.1962 6.28495 24.9379 7.20484C24.9687 7.2234 24.9996 7.2421 25.0304 7.26094ZM4.45538 7.48266C4.64378 7.44025 4.56442 7.33321 4.95556 6.95759C4.96898 6.91109 4.98263 6.8646 4.99659 6.818C4.809 7.03401 4.62814 7.25613 4.45482 7.48338C4.455 7.48314 4.45519 7.4829 4.45538 7.48266ZM7.03723 5.04173C7.20645 5.11793 8.12523 4.34673 8.62632 4.13077C8.6686 4.00137 8.00362 4.42435 7.8458 4.52106C7.76514 4.56464 7.29685 4.76291 7.02259 5.03065C7.02747 5.03434 7.03235 5.03803 7.03723 5.04173ZM22.0393 27.2065C21.9647 27.2534 21.8896 27.2996 21.8141 27.345C22.0072 27.2383 22.1977 27.1265 22.3853 27.0098C22.0884 27.1996 21.7841 27.3775 21.4733 27.5429C21.5264 27.5033 21.5792 27.4635 21.6317 27.4235C21.7688 27.3537 21.9047 27.2814 22.0393 27.2065ZM21.0425 27.7621C21.5894 27.4781 21.0299 27.7971 20.8848 27.8514C20.7988 27.885 20.9866 27.7909 21.0425 27.7621ZM19.5628 28.3717C19.8279 28.2614 20.3624 28.0392 20.1859 28.1507C19.8921 28.2519 19.7113 28.3393 19.2816 28.4728C19.3416 28.4452 19.4013 28.4173 19.4608 28.389C19.4611 28.3889 19.4614 28.3888 19.4617 28.3887C19.4954 28.3832 19.5291 28.3775 19.5628 28.3717ZM21.2836 27.6162C21.6517 27.4496 20.607 27.9712 20.9292 27.7948C20.9449 27.7878 21.2698 27.6239 21.2836 27.6162ZM23.1237 5.62747C23.1946 5.61455 22.9591 5.42652 22.8811 5.3634C22.5466 5.08441 22.0728 4.78759 21.6891 4.54867C21.7094 4.58125 21.7294 4.61388 21.7492 4.64658C22.2284 4.94349 22.6877 5.27131 23.1237 5.62747ZM20.4409 3.88245C20.1588 3.7511 19.8721 3.62984 19.5815 3.51895C19.5543 3.50844 19.4121 3.50201 19.5029 3.54739C19.8189 3.64711 20.1319 3.75887 20.4409 3.88245ZM3.52377 9.26205C3.66014 9.06411 3.41238 9.71479 3.33112 9.63674C3.39339 9.51082 3.45752 9.38607 3.52377 9.26205ZM2.6173 11.3054C2.65972 11.1605 2.70451 11.0163 2.75181 10.8725C2.76353 10.877 2.77525 10.8815 2.78697 10.8859C2.72799 11.0248 2.67147 11.1645 2.6173 11.3054ZM24.0019 6.46516C23.9372 6.30626 23.6551 6.05594 23.4784 5.90188C23.5638 6.05002 23.8651 6.28849 24.0019 6.46516ZM5.75661 6.45469C5.71441 6.43956 6.42511 5.80249 6.21968 6.06755C6.06249 6.19275 5.90807 6.32184 5.75661 6.45469ZM7.2627 5.24913C7.10242 5.37412 6.97086 5.46139 6.97161 5.3941C7.05908 5.33019 7.14731 5.26741 7.23629 5.20576C7.24509 5.22022 7.25389 5.23467 7.2627 5.24913ZM18.5121 28.6637C18.1733 28.7548 17.8308 28.8327 17.486 28.897C17.4979 28.8898 17.5098 28.8826 17.5216 28.8754C17.8536 28.8128 18.1832 28.7376 18.5096 28.65C18.5105 28.6546 18.5113 28.6592 18.5121 28.6637ZM24.0136 6.7253C24.1838 6.88037 24.35 7.04015 24.5121 7.20445C24.3693 7.02251 24.2213 6.84421 24.0681 6.66985C24.0497 6.68828 24.0313 6.7067 24.013 6.72513C24.0132 6.72519 24.0134 6.72524 24.0136 6.7253ZM22.8218 26.5976C21.9269 27.1854 23.0527 26.414 23.2817 26.2472C23.2819 26.247 23.2822 26.2468 23.2824 26.2466C23.3032 26.233 23.2676 26.2724 23.3026 26.2502C23.2137 26.3137 23.1239 26.376 23.0335 26.437C22.9566 26.5002 22.879 26.5627 22.8009 26.6244C22.7728 26.6415 22.7446 26.6585 22.7164 26.6753C22.7517 26.6496 22.7868 26.6237 22.8218 26.5976ZM25.8946 23.5732C26.4572 22.777 25.9074 23.6109 25.592 23.9773C25.5927 23.9735 25.8428 23.6466 25.8946 23.5732ZM24.2013 25.4764C24.0901 25.5821 23.9773 25.6856 23.8627 25.7875C23.8462 25.7984 23.8297 25.8092 23.8132 25.8201C23.9008 25.7417 23.9875 25.6622 24.0731 25.5817C24.116 25.5469 24.1588 25.5119 24.2013 25.4764ZM19.9414 28.0765C19.7108 28.1575 19.4344 28.3108 20.1639 28.0154C20.1619 28.0118 20.1599 28.0081 20.1579 28.0044C20.1292 28.0168 20.0452 28.0544 20.0404 28.0559C20.0266 28.0602 20.0371 28.0413 19.9414 28.0765ZM26.8222 22.0292C26.8345 22.0043 26.8283 21.9843 26.979 21.7378C27.0184 21.66 27.057 21.5819 27.0949 21.5035C27.1083 21.4849 27.1216 21.4663 27.1348 21.4476C26.9824 21.7488 26.9696 21.7823 26.9591 21.8043C26.9073 21.9038 26.9425 21.8286 26.9084 21.8924C26.8216 22.058 26.6106 22.426 26.6963 22.2535C26.7274 22.1916 26.8096 22.0538 26.8222 22.0292ZM26.479 22.5913C26.5021 22.5576 26.4375 22.6721 26.4553 22.6469C26.4723 22.6257 26.6865 22.2806 26.6382 22.3795C26.6039 22.4367 26.5692 22.4937 26.534 22.5505C26.5199 22.5684 26.5057 22.5862 26.4914 22.604C26.4596 22.6602 26.4274 22.7161 26.3949 22.7719C26.3307 22.8602 26.1953 23.0479 26.3411 22.8155C26.2867 22.9004 26.2312 22.9847 26.1749 23.0684C26.1484 23.1135 26.1217 23.1584 26.0947 23.2033C26.1059 23.1778 26.117 23.1523 26.1281 23.1269C26.2493 22.9513 26.3663 22.7727 26.479 22.5913ZM27.812 19.7603C27.8094 19.7724 27.8069 19.7845 27.8043 19.7967C27.9235 19.4437 28.0744 18.8827 27.9935 19.2024C27.8562 19.6887 27.6919 20.1668 27.5017 20.6339C27.4878 20.6644 27.4737 20.6949 27.4595 20.7252C27.6068 20.3789 27.5441 20.4795 27.6658 20.1757C27.6853 20.1241 27.6385 20.2774 27.7509 19.9492C27.7454 19.9604 27.7399 19.9715 27.7343 19.9827C27.7608 19.9088 27.7867 19.8347 27.812 19.7603ZM28.4578 16.6243C28.3969 17.262 28.4652 16.5598 28.4713 16.4414C28.4713 16.4416 28.4713 16.4418 28.4713 16.442C28.4955 16.1185 28.4459 16.8141 28.4373 16.8561C28.4311 16.9122 28.4233 17.044 28.3775 17.3479C28.4108 17.1077 28.4376 16.8663 28.4578 16.6243ZM28.1223 18.6837C28.1348 18.6315 28.1293 18.6607 28.1347 18.6382C28.1347 18.638 28.1348 18.6378 28.1348 18.6376C28.2212 18.3065 28.3601 17.5037 28.37 17.4157C28.3478 17.6695 28.117 18.7798 28.0856 18.8425C28.0981 18.7896 28.1103 18.7367 28.1223 18.6837ZM27.355 20.9567C27.2646 21.1456 27.4554 20.7151 27.5025 20.6007C27.5117 20.5792 27.4485 20.7608 27.355 20.9567ZM14.6763 28.7994C14.228 28.7899 14.8162 28.8355 14.6117 28.8474C14.6975 28.8497 14.7833 28.8512 14.8693 28.8519C14.8046 28.835 14.7403 28.8175 14.6763 28.7994ZM2.5021 15.5068C2.51211 15.4069 2.48277 15.4536 2.48276 15.4449C2.48677 15.3791 2.51269 15.3179 2.51195 15.2926C2.50036 14.8249 2.45506 15.1329 2.44915 15.1378C2.42149 15.1465 2.39846 15.021 2.35565 15.191C2.35834 15.2957 2.36225 15.4002 2.36738 15.5046C2.3503 15.556 2.3336 15.6076 2.31728 15.6594C2.34382 15.8672 2.3592 15.5955 2.40338 15.5658C2.42058 15.5545 2.43275 15.7476 2.5021 15.5068ZM13.8805 28.6901C13.8066 28.7068 13.6267 28.717 13.798 28.7621C13.7982 28.7622 13.7984 28.7622 13.7986 28.7622C13.8303 28.7706 13.9613 28.7869 14.0012 28.7969C14.2916 28.79 14.182 28.7497 13.8805 28.6901ZM2.63459 17.3481C2.64077 17.5144 2.65048 17.6811 2.66367 17.8476C2.63707 17.8492 2.61047 17.8509 2.58386 17.8524C2.57817 17.7625 2.57354 17.6727 2.5699 17.5827C2.55404 17.5533 2.53825 17.5239 2.52255 17.4943C2.50492 17.6091 2.48916 17.7247 2.47525 17.8407C2.48645 17.8904 2.49793 17.94 2.50969 17.9896C2.52921 18.0719 2.54948 18.1538 2.57049 18.2354C2.57336 18.1716 2.57677 18.1079 2.58073 18.0443C2.64981 18.3656 2.57506 18.3075 2.60457 18.5813C2.64699 18.6679 2.69011 18.7538 2.73392 18.8389C2.7404 18.9766 2.74936 19.1143 2.761 19.2524C2.83056 19.4701 2.85388 19.4834 2.83939 19.3282C2.89824 19.4283 2.88543 19.5618 2.93669 19.6887C2.94088 19.6991 2.96222 19.6699 2.96541 19.6793C3.19228 20.3442 3.1246 20.3311 3.1576 20.4394C3.18237 20.5156 3.34451 20.7925 3.36239 20.7898C3.38648 20.7846 3.22034 20.1463 3.61251 21.0914C3.4557 20.5823 3.20621 20.037 3.25042 20.4375C3.19477 20.2781 2.94726 19.5784 2.94167 19.5305C2.92688 19.4628 2.96761 19.4756 2.94563 19.3922C2.93404 19.3434 2.81356 19.2355 2.79393 18.8238C2.76938 18.777 2.74504 18.7299 2.72091 18.6826C2.72185 18.6327 2.72312 18.5828 2.72476 18.533C2.78373 18.6215 2.84333 18.7089 2.90348 18.7952C2.79151 18.4679 2.80102 18.1674 2.73464 17.9495C2.72571 17.9203 2.7154 17.8925 2.70319 17.8661C2.68257 17.6614 2.68037 17.5614 2.72677 17.6433C2.71923 17.5823 2.71215 17.5213 2.70553 17.4604C2.68178 17.4231 2.65814 17.3858 2.63459 17.3481ZM12.5824 28.5168C12.3797 28.4481 12.2951 28.4811 12.3265 28.4919C12.5051 28.5504 12.6883 28.5518 12.5824 28.5168ZM2.44097 15.8784C2.41355 16.1052 2.39271 16.3335 2.37854 16.5631C2.40757 16.5612 2.43659 16.5594 2.46561 16.5575C2.45136 16.3314 2.44315 16.1049 2.44097 15.8784ZM14.7424 28.7685C14.7637 28.7807 14.7851 28.7928 14.8066 28.8048C15.0642 28.7741 15.3204 28.8322 15.4481 28.8183C15.4757 28.8153 15.4191 28.7969 15.3664 28.793C15.3334 28.7935 14.7876 28.7697 14.7424 28.7685ZM24.5414 24.98C24.4745 25.0512 24.407 25.1217 24.3387 25.1916C24.3382 25.1834 24.3377 25.1752 24.3372 25.167C24.3714 25.1331 24.4053 25.099 24.4391 25.0647C24.4734 25.0367 24.5074 25.0085 24.5414 24.98ZM23.7271 25.7346C23.5933 25.8458 23.4574 25.9543 23.3194 26.0601C23.8352 25.6436 23.4082 25.9809 23.7141 25.7197C23.7185 25.7247 23.7228 25.7296 23.7271 25.7346ZM22.2986 26.757C22.3141 26.7418 22.3295 26.7265 22.3448 26.7112C22.4909 26.6183 22.6354 26.5225 22.7778 26.4239C22.6785 26.4737 22.5786 26.5219 22.478 26.5683C22.425 26.6027 22.3718 26.6368 22.3182 26.6705C22.3118 26.6992 22.3052 26.7281 22.2986 26.757ZM3.58863 11.269C3.62648 11.1796 3.72002 10.8511 3.6974 10.8568C3.61644 10.9757 3.53747 11.0966 3.46071 11.2192C3.49144 11.232 3.52217 11.2448 3.5529 11.2576C3.52965 11.2699 3.50645 11.2823 3.48328 11.2948C3.46375 11.3737 3.445 11.4525 3.42694 11.5315C3.38485 11.5593 3.34292 11.5874 3.30117 11.6159C3.31752 11.6652 3.33408 11.7142 3.35084 11.763C3.54398 11.4203 3.48828 11.4149 3.5189 11.3399C3.53492 11.3023 3.56423 11.2859 3.57955 11.2764C3.58258 11.2739 3.58561 11.2714 3.58863 11.269ZM2.62765 16.0309C2.64045 15.5664 2.57958 15.2966 2.67597 14.965C2.49598 15.1721 2.60149 16.5742 2.55078 17.0776C2.57639 17.1268 2.6022 17.1757 2.62821 17.2244C2.58494 16.9578 2.62023 16.767 2.62114 16.636C2.6221 16.5317 2.59987 16.544 2.59985 16.5361C2.59984 16.5357 2.59983 16.5353 2.59981 16.5349C2.60167 16.2906 2.62408 16.2146 2.62765 16.0309ZM15.1054 28.7248C14.9743 28.7054 14.7458 28.6973 14.7427 28.7231C14.87 28.7365 14.9977 28.7479 15.1257 28.7573C15.0994 28.7503 15.1278 28.7282 15.1054 28.7248ZM22.1026 26.8246C22.0113 26.8742 21.8017 27.0006 21.9007 26.96C21.9187 26.9531 22.1233 26.8196 22.0139 26.9148C22.218 26.7917 22.1545 26.7964 22.1026 26.8246ZM5.00952 23.5868C5.06065 23.6537 5.11246 23.7202 5.16494 23.7861C5.18958 23.7913 5.21417 23.7965 5.23873 23.8016C5.16171 23.731 5.08527 23.6594 5.00952 23.5868ZM16.2106 28.6813C16.3297 28.7213 16.5201 28.6604 16.7392 28.6753C16.8185 28.667 16.8978 28.6579 16.9769 28.6481C16.9771 28.648 16.9773 28.648 16.9775 28.648C16.9777 28.6353 16.9779 28.6226 16.9782 28.61C16.7228 28.6414 16.4668 28.6652 16.2106 28.6813ZM2.88214 18.8642C2.88194 18.917 2.88213 18.9699 2.88271 19.0229C2.91742 19.108 2.953 19.1929 2.98931 19.2771C2.98621 19.2267 2.98345 19.1763 2.98104 19.1259C2.94721 19.0391 2.91427 18.9519 2.88214 18.8642ZM17.5966 28.5107C17.3213 28.5515 17.2244 28.6066 17.5765 28.5479C17.7247 28.5216 17.8849 28.4643 17.5966 28.5107ZM6.38603 7.17578C6.31461 7.23051 6.24379 7.28612 6.17351 7.34265C6.16864 7.38008 6.16394 7.41744 6.15939 7.45473C6.23356 7.36078 6.30904 7.26786 6.38603 7.17578ZM23.2105 26.0791C23.2048 26.0901 23.199 26.1011 23.1933 26.1121C23.1236 26.163 23.0534 26.2134 22.9827 26.2629C22.9971 26.2459 23.0113 26.2289 23.0256 26.2119C23.0876 26.1682 23.1493 26.1239 23.2105 26.0791ZM5.95032 7.59021C5.89769 7.63901 5.84554 7.68825 5.79377 7.73805C5.76958 7.78074 5.74565 7.82351 5.72197 7.86637C5.77509 7.82381 5.8285 7.78183 5.8822 7.74042C5.90454 7.69034 5.92725 7.64027 5.95032 7.59021ZM20.1404 27.7966C20.0376 27.8295 19.6438 28.0039 20.0096 27.8737C20.2419 27.7878 20.1558 27.7916 20.1404 27.7966ZM20.6725 27.5639C20.289 27.713 20.6084 27.6683 21.0292 27.4109C20.5857 27.6287 20.6943 27.5535 20.6725 27.5639ZM23.7167 25.6272C23.7246 25.6205 23.7369 25.6215 23.8006 25.5682C24.0302 25.3771 24.3232 25.1114 24.4763 24.9616C24.5464 24.8939 24.642 24.7989 24.7508 24.686C25.2271 24.2095 25.8808 23.3603 25.9742 23.2415C25.9998 23.2122 25.9566 23.2904 25.9663 23.278C25.9953 23.2418 26.1436 23.0216 26.1217 23.066C25.973 23.2802 25.818 23.49 25.6573 23.6948C25.6919 23.6409 25.7263 23.5869 25.7603 23.5328C25.3635 24.0451 25.4924 23.8733 25.3854 24.0264C25.3108 24.1071 25.235 24.1868 25.1582 24.2653C25.0323 24.4143 24.9033 24.5608 24.7712 24.7047C24.742 24.7365 24.7127 24.7682 24.6832 24.7997C24.7109 24.7665 24.7384 24.7332 24.7659 24.6997C24.7728 24.6913 24.7797 24.6829 24.7866 24.6744C24.7785 24.6824 24.7708 24.6901 24.7634 24.6975C24.5342 24.9217 24.5991 24.8619 24.4711 25.0029C24.4676 25 24.464 24.9971 24.4605 24.9942C24.2192 25.242 24.157 25.275 24.1014 25.3257C23.9847 25.4264 23.8816 25.6109 23.379 25.9303C23.2008 26.1057 23.1667 26.0533 23.0685 26.1646C22.7066 26.3827 23.3651 25.9299 23.6544 25.6849C23.6546 25.6848 23.6547 25.6847 23.6549 25.6845C23.677 25.6665 23.6385 25.6913 23.7167 25.6272ZM21.973 26.8921C22.1774 26.742 21.3032 27.2289 21.6158 27.1076C21.6599 27.0851 21.7039 27.0624 21.7478 27.0394C21.8235 26.9909 21.8987 26.9417 21.9735 26.8918C21.9733 26.8919 21.9731 26.892 21.973 26.8921ZM12.9827 28.4396C12.0898 28.2759 12.5885 28.4147 12.8963 28.4459C12.9576 28.4519 12.9919 28.45 12.9827 28.4396ZM2.7252 15.369C2.71431 15.356 2.70344 15.3429 2.69257 15.3298C2.68023 15.6209 2.63096 16.1887 2.71013 16.1783C2.70633 15.9083 2.71136 15.6383 2.7252 15.369ZM2.84428 17.6695C2.84018 17.6065 2.82376 17.3506 2.79954 17.385C2.79098 17.498 2.78423 17.6118 2.77918 17.7256C2.79799 17.7752 2.81705 17.8247 2.83637 17.874C2.83012 17.8014 2.8451 17.6864 2.84428 17.6695Z" fill="#B5838D"/>
</svg>
