<?xml version="1.0" encoding="UTF-8"?>
<svg id="_Шар_2" data-name="Шар 2" xmlns="http://www.w3.org/2000/svg" viewBox="0 0 312.51 166.96">
  <defs>
    <style>
      .cls-1 {
        fill: #6d6875;
      }

      .cls-1, .cls-2 {
        stroke-width: 0px;
      }

      .cls-2 {
        fill: #b5838d;
      }
    </style>
  </defs>
  <g id="_Шар_1-2" data-name="Шар 1">
    <g>
      <path class="cls-1" d="M238.2,78.8c-.8,6.14-.34,7.83-1.36,13.56-1.28,7.23-3.48,12.49-4.58,15.26-2.83,7.12-6.78,13.73-11.87,19.84-5.09,6.1-10.77,11.47-17.04,16.11-6.27,4.63-12.66,8.22-19.16,10.77-6.5,2.54-12.58,3.81-18.23,3.81-6.44,0-11.84-2.01-16.19-6.02-4.35-4.01-6.53-10.48-6.53-19.41,0-3.73.34-7.52,1.02-11.36.68-3.84,1.47-7.23,2.37-10.17-1.92,3.17-4.47,7.09-7.63,11.78-3.17,4.69-6.75,9.58-10.77,14.67-4.01,5.09-8.17,9.86-12.46,14.33-4.3,4.46-8.59,8.08-12.88,10.85-4.3,2.77-8.37,4.15-12.21,4.15-3.39,0-6.19-1.24-8.39-3.73-2.2-2.49-3.08-7.18-2.63-14.07.45-7.12,2.65-16.28,6.61-27.46,3.96-11.19,9.1-24.35,15.43-39.5,2.03-4.86,4.1-10.28,6.19-16.28,2.09-5.99,3.87-12.01,5.34-18.06,1.47-6.04,2.2-11.5,2.2-16.36,0-3.39-.42-6.36-1.27-8.9s-2.35-4.43-4.49-5.68c-2.49-1.58-5.14-2.71-7.97-3.39-2.83-.68-5.82-1.02-8.99-1.02-7.12,0-14.61,1.64-22.46,4.92-7.86,3.28-15.43,7.77-22.72,13.48-7.29,5.71-13.79,12.18-19.5,19.41-5.71,7.23-10.03,14.75-12.97,22.55-1.7,4.64-2.94,8.99-3.73,13.05-.79,4.07-1.19,7.74-1.19,11.02,0,6.22,1.16,11.39,3.48,15.51,2.32,4.13,5.37,7.18,9.15,9.16,3.79,1.98,7.88,2.97,12.29,2.97,4.18,0,8.14-.73,11.87-2.2,4.86-1.81,9.21-4.86,13.05-9.16,3.84-4.29,6.89-9.07,9.16-14.33,2.26-5.26,3.39-10.09,3.39-14.5,0-3.84-.99-7.06-2.97-9.66-1.98-2.6-5.23-3.9-9.75-3.9h-1.95c-.62,0-1.33.11-2.12.34-.45.11-.85.17-1.19.17h-.85c-1.02,0-1.53-.23-1.53-.68,0-.68,1.07-1.41,3.22-2.2,3.5-1.13,6.78-1.7,9.83-1.7,5.31,0,9.27,1.56,11.87,4.66,2.6,3.11,3.9,7.04,3.9,11.78s-1.3,9.86-3.9,15.34c-2.6,5.48-6.42,10.71-11.44,15.68-5.03,4.97-11.33,9.04-18.9,12.21-4.07,1.7-8.25,2.54-12.55,2.54-5.88,0-11.42-1.53-16.61-4.58-5.2-3.05-9.44-7.4-12.71-13.05-3.28-5.65-4.92-12.32-4.92-20.01,0-3.73.45-7.63,1.36-11.7.91-4.07,2.32-8.36,4.24-12.89,3.73-8.7,8.82-16.64,15.26-23.82,6.44-7.18,13.65-13.39,21.62-18.65s16.13-9.3,24.5-12.12c8.36-2.82,16.33-4.24,23.9-4.24,6.67,0,12.72,1.19,18.14,3.56,5.99,2.6,10.2,6.3,12.63,11.1,2.43,4.81,3.65,10.2,3.65,16.19,0,6.56-1.1,13.54-3.31,20.94-2.2,7.4-4.89,14.67-8.05,21.79-3.5,8.03-6.95,16.39-10.34,25.09-3.39,8.7-6.33,16.95-8.82,24.75-2.49,7.8-4.24,14.3-5.26,19.5-.23,1.24-.4,2.34-.51,3.31-.11.96-.17,1.78-.17,2.46,0,3.95,1.3,5.93,3.9,5.93,1.58,0,3.45-.68,5.59-2.04,4.18-2.49,8.42-6.22,12.72-11.19,4.29-4.97,8.56-10.65,12.8-17.04,4.24-6.38,8.33-12.94,12.29-19.67,3.96-6.72,7.74-13.08,11.36-19.07,3.62-5.99,6.89-11.08,9.83-15.26,1.81-2.48,3.5-4.32,5.09-5.51,1.58-1.19,2.94-1.78,4.07-1.78,2.37,0,3.56,1.81,3.56,5.43,0,2.15-.51,4.75-1.53,7.8-1.47,4.3-3.45,9.18-5.93,14.67-2.49,5.48-4.81,11.02-6.95,16.61-2.15,5.59-3.56,10.82-4.24,15.68-.11,1.25-.2,2.35-.25,3.31-.06.96-.08,1.95-.08,2.97,0,5.88,1.19,10.09,3.56,12.63s5.48,3.81,9.32,3.81c4.41,0,9.41-1.42,15-4.24,5.59-2.83,11.22-6.58,16.87-11.27,5.65-4.69,10.77-9.86,15.34-15.51,4.58-5.65,8.05-11.3,10.43-16.95,2.6-6.21,4.58-12.26,5.93-18.14,2-8.66.4-9.35,2.03-16.11.95-3.92,3.03-12.14,9.65-19.62,7.03-7.95,15.62-11.03,20.09-12.26-10.99,8.44-15.27,17.24-17.02,21.79-2.58,6.68-3.74,14.71-4.06,17.2Z"/>
      <path class="cls-2" d="M263.14,76.26s17.54-37.89,16.47-39.02c-1.08-1.13-17.49,1.58-17.49,1.58,0,0,15.53-7.1,19.26-10.82,4.19-4.19,16.15-27.99,16.15-27.99,0,0-7.96,26.21-6.82,27.23,1.13,1.02,21.8-1.36,21.8-1.36,0,0-17.44,5.64-22.48,10.68s-26.88,39.7-26.88,39.7Z"/>
    </g>
  </g>
</svg>