<?xml version="1.0" encoding="UTF-8"?>
<svg id="_Шар_2" data-name="Шар 2" xmlns="http://www.w3.org/2000/svg" viewBox="0 0 376.03 166.96">
  <defs>
    <style>
      .cls-1 {
        fill: #000;
      }

      .cls-1, .cls-2 {
        stroke-width: 0px;
      }

      .cls-2 {
        fill: #e5989b;
      }
    </style>
  </defs>
  <g id="_Шар_1-2" data-name="Шар 1">
    <g>
      <path class="cls-1" d="M238.2,78.8c-.8,6.14-.34,7.83-1.36,13.56-1.28,7.23-3.48,12.49-4.58,15.26-2.83,7.12-6.78,13.73-11.87,19.84-5.09,6.1-10.77,11.47-17.04,16.11-6.27,4.63-12.66,8.22-19.16,10.77-6.5,2.54-12.58,3.81-18.23,3.81-6.44,0-11.84-2.01-16.19-6.02-4.35-4.01-6.53-10.48-6.53-19.41,0-3.73.34-7.52,1.02-11.36.68-3.84,1.47-7.23,2.37-10.17-1.92,3.17-4.47,7.09-7.63,11.78-3.17,4.69-6.75,9.58-10.77,14.67-4.01,5.09-8.17,9.86-12.46,14.33-4.3,4.46-8.59,8.08-12.88,10.85-4.3,2.77-8.37,4.15-12.21,4.15-3.39,0-6.19-1.24-8.39-3.73-2.2-2.49-3.08-7.18-2.63-14.07.45-7.12,2.65-16.28,6.61-27.46,3.96-11.19,9.1-24.35,15.43-39.5,2.03-4.86,4.1-10.28,6.19-16.28,2.09-5.99,3.87-12.01,5.34-18.06,1.47-6.04,2.2-11.5,2.2-16.36,0-3.39-.42-6.36-1.27-8.9s-2.35-4.43-4.49-5.68c-2.49-1.58-5.14-2.71-7.97-3.39-2.83-.68-5.82-1.02-8.99-1.02-7.12,0-14.61,1.64-22.46,4.92-7.86,3.28-15.43,7.77-22.72,13.48-7.29,5.71-13.79,12.18-19.5,19.41-5.71,7.23-10.03,14.75-12.97,22.55-1.7,4.64-2.94,8.99-3.73,13.05-.79,4.07-1.19,7.74-1.19,11.02,0,6.22,1.16,11.39,3.48,15.51,2.32,4.13,5.37,7.18,9.15,9.16,3.79,1.98,7.88,2.97,12.29,2.97,4.18,0,8.14-.73,11.87-2.2,4.86-1.81,9.21-4.86,13.05-9.16,3.84-4.29,6.89-9.07,9.16-14.33,2.26-5.26,3.39-10.09,3.39-14.5,0-3.84-.99-7.06-2.97-9.66-1.98-2.6-5.23-3.9-9.75-3.9h-1.95c-.62,0-1.33.11-2.12.34-.45.11-.85.17-1.19.17h-.85c-1.02,0-1.53-.23-1.53-.68,0-.68,1.07-1.41,3.22-2.2,3.5-1.13,6.78-1.7,9.83-1.7,5.31,0,9.27,1.56,11.87,4.66,2.6,3.11,3.9,7.04,3.9,11.78s-1.3,9.86-3.9,15.34c-2.6,5.48-6.42,10.71-11.44,15.68-5.03,4.97-11.33,9.04-18.9,12.21-4.07,1.7-8.25,2.54-12.55,2.54-5.88,0-11.42-1.53-16.61-4.58-5.2-3.05-9.44-7.4-12.71-13.05-3.28-5.65-4.92-12.32-4.92-20.01,0-3.73.45-7.63,1.36-11.7.91-4.07,2.32-8.36,4.24-12.89,3.73-8.7,8.82-16.64,15.26-23.82,6.44-7.18,13.65-13.39,21.62-18.65s16.13-9.3,24.5-12.12c8.36-2.82,16.33-4.24,23.9-4.24,6.67,0,12.72,1.19,18.14,3.56,5.99,2.6,10.2,6.3,12.63,11.1,2.43,4.81,3.65,10.2,3.65,16.19,0,6.56-1.1,13.54-3.31,20.94-2.2,7.4-4.89,14.67-8.05,21.79-3.5,8.03-6.95,16.39-10.34,25.09-3.39,8.7-6.33,16.95-8.82,24.75-2.49,7.8-4.24,14.3-5.26,19.5-.23,1.24-.4,2.34-.51,3.31-.11.96-.17,1.78-.17,2.46,0,3.95,1.3,5.93,3.9,5.93,1.58,0,3.45-.68,5.59-2.04,4.18-2.49,8.42-6.22,12.72-11.19,4.29-4.97,8.56-10.65,12.8-17.04,4.24-6.38,8.33-12.94,12.29-19.67,3.96-6.72,7.74-13.08,11.36-19.07,3.62-5.99,6.89-11.08,9.83-15.26,1.81-2.48,3.5-4.32,5.09-5.51,1.58-1.19,2.94-1.78,4.07-1.78,2.37,0,3.56,1.81,3.56,5.43,0,2.15-.51,4.75-1.53,7.8-1.47,4.3-3.45,9.18-5.93,14.67-2.49,5.48-4.81,11.02-6.95,16.61-2.15,5.59-3.56,10.82-4.24,15.68-.11,1.25-.2,2.35-.25,3.31-.06.96-.08,1.95-.08,2.97,0,5.88,1.19,10.09,3.56,12.63s5.48,3.81,9.32,3.81c4.41,0,9.41-1.42,15-4.24,5.59-2.83,11.22-6.58,16.87-11.27,5.65-4.69,10.77-9.86,15.34-15.51,4.58-5.65,8.05-11.3,10.43-16.95,2.6-6.21,4.58-12.26,5.93-18.14,2-8.66.4-9.35,2.03-16.11.95-3.92,3.03-12.14,9.65-19.62,7.03-7.95,15.62-11.03,20.09-12.26-10.99,8.44-15.27,17.24-17.02,21.79-2.58,6.68-3.74,14.71-4.06,17.2Z"/>
      <path class="cls-1" d="M246.68,145.77c-4.18,0-7.12-1.21-8.82-3.65-1.7-2.43-2.54-5.23-2.54-8.39,0-1.7.2-3.42.59-5.17.39-1.75.87-3.36,1.44-4.83l11.36-28.99c.34-.9.51-1.7.51-2.37,0-1.13-.28-2.12-.85-2.97-.57-.85-.96-1.44-1.19-1.78l9.32-.34c1.7-.11,2.91.08,3.64.59.73.51,1.1,1.1,1.1,1.78s-.4,1.92-1.19,3.73c-1.13,2.71-2.66,6.1-4.58,10.17-1.92,4.07-3.81,8.25-5.68,12.55-1.87,4.3-3.45,8.31-4.75,12.04-1.3,3.73-1.95,6.61-1.95,8.65,0,1.47.37,2.71,1.1,3.73.73,1.02,2,1.53,3.81,1.53,2.37,0,4.72-.93,7.04-2.8,2.32-1.87,4.49-4.26,6.53-7.21,2.03-2.94,3.93-6.1,5.68-9.49,1.75-3.39,3.25-6.55,4.49-9.49,1.36,0,2.04.51,2.04,1.53-1.13,2.83-2.6,6.05-4.41,9.66-1.81,3.62-3.87,7.04-6.19,10.26-2.32,3.22-4.86,5.91-7.63,8.05-2.77,2.15-5.74,3.22-8.9,3.22Z"/>
      <path class="cls-2" d="M263.14,76.26s17.54-37.89,16.47-39.02c-1.08-1.13-17.49,1.58-17.49,1.58,0,0,15.53-7.1,19.26-10.82,4.19-4.19,16.15-27.99,16.15-27.99,0,0-7.96,26.21-6.82,27.23,1.13,1.02,21.8-1.36,21.8-1.36,0,0-17.44,5.64-22.48,10.68s-26.88,39.7-26.88,39.7Z"/>
      <path class="cls-1" d="M275.33,146.44c-4.64,0-8.39-1.44-11.27-4.32-2.88-2.88-4.32-5.9-4.32-9.07,0-2.6.65-5,1.95-7.21s3.02-3.31,5.17-3.31l.17-.34c2.48-4.52,4.89-9.13,7.21-13.82,2.32-4.69,4.89-9.69,7.71-15,2.37-4.41,4.94-8.02,7.71-10.85,2.77-2.82,6.02-4.24,9.75-4.24.9,0,2.15.2,3.73.59,1.58.4,2.37,1.22,2.37,2.46,0,.91-.51,1.36-1.53,1.36-.79,0-1.67-.23-2.63-.68-.96-.45-1.72-.68-2.29-.68-2.15,0-3.96,1.24-5.42,3.73-1.47,2.49-2.2,5.14-2.2,7.97,0,3.05.51,5.79,1.53,8.22,1.02,2.43,2.2,4.78,3.56,7.04,1.36,2.26,2.54,4.55,3.56,6.87,1.02,2.32,1.53,4.83,1.53,7.54,0,5.43-1.05,9.81-3.14,13.14-2.09,3.33-4.83,5.85-8.22,7.54h.17c5.99,0,10.94-2.8,14.83-8.39s7.77-12.91,11.61-21.96c1.36,0,2.03.51,2.03,1.53-2.15,5.09-4.52,10.06-7.12,14.92-2.6,4.86-5.65,8.87-9.16,12.04-3.5,3.17-7.8,4.75-12.88,4.75-2.15,0-4.13-.23-5.93-.68-2.6.56-5.43.85-8.48.85ZM267.19,136.95c0,1.81.62,3.39,1.87,4.75,1.24,1.36,3.11,2.03,5.59,2.03,1.13,0,2.2-.11,3.22-.34-2.37-1.47-4.27-3.33-5.68-5.59-1.42-2.26-2.12-4.86-2.12-7.8-1.02,1.13-1.75,2.29-2.2,3.48-.45,1.19-.68,2.35-.68,3.48ZM272.78,128.47c0,2.71.62,5.31,1.87,7.8,1.24,2.49,3.5,4.35,6.78,5.59,2.94-1.7,5.23-4.32,6.87-7.88,1.64-3.56,2.46-7.26,2.46-11.1,0-3.16-.34-6.38-1.02-9.66-.68-3.28-1.39-6.5-2.12-9.66-.74-3.16-1.1-5.99-1.1-8.48,0-.79.03-1.5.08-2.12.06-.62.14-1.21.25-1.78-2.04,3.05-4.1,6.61-6.19,10.68-2.09,4.07-4.1,7.97-6.02,11.7-1.92,3.73-3.67,6.78-5.26,9.15,2.26.34,3.39,2.26,3.39,5.76Z"/>
      <path class="cls-1" d="M300.59,147.12c4.75-9.72,9.69-19.92,14.83-30.6,5.14-10.68,10.43-21.45,15.85-32.3,5.42-10.85,10.79-21.19,16.11-31.02,1.92-3.39,3.7-6.05,5.34-7.97,1.64-1.92,3.81-2.88,6.53-2.88,1.02,0,2.2.17,3.56.51,1.36.34,2.65.4,3.9.17-1.47,1.58-3.48,4.35-6.02,8.31-2.54,3.96-5.37,8.7-8.48,14.24-3.11,5.54-6.39,11.5-9.83,17.89-3.45,6.39-6.84,12.83-10.17,19.33-3.33,6.5-6.42,12.57-9.24,18.22,2.26-2.94,4.58-5.71,6.95-8.31,2.37-2.6,4.69-4.86,6.95-6.78,2.48-2.26,5.62-4.63,9.41-7.12,3.79-2.48,7.57-4.63,11.36-6.44,3.79-1.81,6.81-2.71,9.07-2.71.79,0,1.36.06,1.7.17-2.49,4.52-4.66,8.54-6.53,12.04-1.86,3.5-3.79,7.29-5.76,11.36-1.98,4.07-3.7,7.94-5.17,11.61-1.47,3.67-2.43,6.7-2.88,9.07-.34,1.81-.51,3.34-.51,4.58,0,1.81.34,3.02,1.02,3.64.68.62,1.41.93,2.2.93,1.92,0,3.98-.99,6.19-2.97,2.2-1.98,4.38-4.49,6.53-7.54,2.15-3.05,4.15-6.3,6.02-9.75,1.86-3.45,3.36-6.7,4.49-9.75,1.36,0,2.04.51,2.04,1.53-1.25,3.05-2.8,6.42-4.66,10.09-1.86,3.67-3.98,7.15-6.36,10.43-2.37,3.28-4.97,5.99-7.8,8.14-2.83,2.15-5.82,3.22-8.99,3.22-2.26,0-4.58-.79-6.95-2.37-2.37-1.58-3.56-4.46-3.56-8.65,0-1.24.11-2.57.34-3.98.22-1.41.62-3.02,1.19-4.83.68-2.26,1.81-4.77,3.39-7.54,1.58-2.77,3.62-6.24,6.1-10.43,1.13-1.92,1.7-3.45,1.7-4.58,0-1.36-.68-2.04-2.03-2.04-1.13,0-2.66.57-4.58,1.7-1.92,1.13-4.35,3.11-7.29,5.93-2.83,2.71-6.33,6.67-10.51,11.87-4.18,5.2-8.65,12.49-13.39,21.87-.79,1.47-1.67,2.23-2.63,2.29-.96.06-2.23.14-3.81.25-1.02.11-2.03.2-3.05.25-1.02.06-1.87.37-2.54.93Z"/>
    </g>
  </g>
</svg>